<?xml version="1.0" encoding="utf-8"?>
<!-- Generator: Adobe Illustrator 19.2.0, SVG Export Plug-In . SVG Version: 6.00 Build 0)  -->
<svg version="1.1" id="Layer_1" xmlns="http://www.w3.org/2000/svg" xmlns:xlink="http://www.w3.org/1999/xlink" x="0px" y="0px"
	 width="88.7px" height="47.9px" viewBox="0 0 88.7 47.9" style="enable-background:new 0 0 88.7 47.9;" xml:space="preserve">
<style type="text/css">
	.st0{fill:#FFFFFF;}
	.st1{fill:none;stroke:#421F10;stroke-width:2;stroke-linecap:round;stroke-linejoin:round;stroke-miterlimit:10;}
</style>
<path class="st0" d="M80.7,21.6c0,0,14.3,6.8,4.5,17.8c-9.8,11.1-19.5-1.6-22.7-4.2c-2.6-2.1-28.7-0.3-31,2.1
	c-2.9,3-10.8,16.8-21.9,7.2c-11.2-9.6,2.1-18.3,2.1-18.3S-2.6,19.5,7.2,8.4c9.8-11,19.5,1.6,22.7,4.2c2.6,2.1,28.7,0.3,31-2.1
	c2.9-3.1,10.8-16.8,21.9-7.2C94,13,80.7,21.6,80.7,21.6z"/>
<path class="st1" d="M77.6,24c0,0,13.8,7.7,3.3,18.1c-10.5,10.4-19.3-2.9-22.4-5.7c-2.4-2.3-28.7-2.3-31.1,0
	c-3.1,2.8-11.9,16.1-22.4,5.7C-5.4,31.8,8.4,24,8.4,24S-5.4,16.3,5.1,5.9c10.5-10.4,19.3,2.9,22.4,5.7c2.4,2.3,28.7,2.3,31.1,0
	c3.1-2.9,11.9-16.1,22.4-5.7C91.4,16.3,77.6,24,77.6,24z"/>
</svg>
