<?xml version="1.0" encoding="utf-8"?>
<!-- Generator: Adobe Illustrator 23.1.0, SVG Export Plug-In . SVG Version: 6.00 Build 0)  -->
<svg version="1.1" id="Layer_1" xmlns="http://www.w3.org/2000/svg" xmlns:xlink="http://www.w3.org/1999/xlink" x="0px" y="0px"
	 viewBox="0 0 100 100" style="enable-background:new 0 0 100 100;" xml:space="preserve">
<style type="text/css">
	.st0{fill:#FFB632;}
	.st1{fill:#EB423F;}
	.st2{fill:#AD6643;}
	.st3{fill:#EA9F26;}
	.st4{fill:#596063;}
	.st5{fill:#7E8589;}
</style>
<path class="st0" d="M39.6,10.3h55.2l5.2,17.3v65.6v6.9H34.5V27.6L39.6,10.3z"/>
<path class="st1" d="M100,93.1H34.5v6.9H100V93.1z"/>
<path class="st1" d="M94.9,0H39.7v10.4h55.2V0z"/>
<g>
	<ellipse class="st2" cx="74.2" cy="44.8" rx="3.4" ry="5.2"/>
	<ellipse class="st2" cx="84.5" cy="53.5" rx="3.4" ry="5.2"/>
	<ellipse class="st2" cx="60.3" cy="44.8" rx="3.4" ry="5.2"/>
</g>
<path class="st3" d="M87.9,27.6c0,1,0.8,1.7,1.7,1.7H100v-1.7l-0.5-1.7h-9.8C88.7,25.8,87.9,26.6,87.9,27.6z"/>
<path class="st3" d="M50,29.3h32.8c0.9,0,1.7-0.8,1.7-1.7c0-1-0.8-1.7-1.7-1.7H50c-0.9,0-1.7,0.8-1.7,1.7C48.3,28.5,49,29.3,50,29.3
	z"/>
<path class="st3" d="M34.5,27.6v1.7h8.6c0.9,0,1.7-0.8,1.7-1.7c0-1-0.8-1.7-1.7-1.7H35L34.5,27.6z"/>
<path class="st2" d="M57.8,62.1c1,0,1.9,0.2,2.8,0.6c-0.1-0.5-0.2-1-0.2-1.5c0-3.3,3.1-6,6.9-6c3.8,0,6.9,2.7,6.9,6
	c0,0.5-0.1,1-0.2,1.5c0.9-0.4,1.8-0.6,2.8-0.6c3.3,0,6,2.3,6,5.2c0,2.9-2.7,5.2-6,5.2s-6-2.3-6-5.2c0-0.3,0-0.6,0.1-0.9
	c-2.2,1.1-4.8,1.1-7.1,0c0,0.3,0.1,0.6,0.1,0.9c0,2.9-2.7,5.2-6,5.2s-6-2.3-6-5.2S54.4,62.1,57.8,62.1z"/>
<ellipse class="st2" cx="50" cy="53.5" rx="3.4" ry="5.2"/>
<path class="st3" d="M79.3,88h6.9c0.9,0,1.7-0.8,1.7-1.7c0-0.9-0.8-1.7-1.7-1.7h-6.9c-0.9,0-1.7,0.8-1.7,1.7
	C77.6,87.2,78.4,88,79.3,88z"/>
<circle class="st3" cx="93.1" cy="86.2" r="1.7"/>
<path class="st4" d="M62.1,93.1H3.4c-1.9,0-3.4,1.6-3.4,3.4v3.4l0,0h65.5l0,0v-3.4C65.5,94.7,64,93.1,62.1,93.1z"/>
<path class="st5" d="M3.4,93.1h58.7l-4.8-10.7c-0.8-1.9-3.2-3.2-5.9-3.2H14c-2.7,0-5,1.3-5.9,3.2L3.4,93.1z"/>
</svg>
