<?xml version="1.0" encoding="utf-8"?>
<!-- Generator: Adobe Illustrator 23.1.0, SVG Export Plug-In . SVG Version: 6.00 Build 0)  -->
<svg version="1.1" id="Layer_1" xmlns="http://www.w3.org/2000/svg" xmlns:xlink="http://www.w3.org/1999/xlink" x="0px" y="0px"
	 viewBox="0 0 5000 5000" style="enable-background:new 0 0 5000 5000;" xml:space="preserve">
<style type="text/css">
	.st0{fill:#8BCACA;}
	.st1{fill:#FF9E5C;}
	.st2{fill:#FFF9F9;}
	.st3{fill:#473A2E;}
	.st4{fill:#FFB6B6;}
	.st5{fill:#FED0AF;}
	.st6{fill:#FFFFFF;}
	.st7{fill:#F9F0E3;}
	.st8{fill:#AF9274;}
	.st9{fill:#F9F1E4;}
	.st10{fill:#F9F1E5;}
	.st11{fill:#F78774;}
	.st12{fill:#FA9D84;}
	.st13{fill:#FC9D77;}
	.st14{fill:#AFAFAF;}
	.st15{fill:#F4F4E5;}
	.st16{fill:#605F5D;}
	.st17{fill:#FFAEAE;}
</style>
<g>
	<path class="st0" d="M4997.18,4742.01c-53.62,0.1-107.29-1.25-165.94-8.17c-117.49-13.87-254.98-50.09-367.1-86.81
		c-109.46-35.85-194.74-72.19-274.47-120.53c-174.07-105.55-291.98-271.46-289.06-399.15c0.01-0.6,0.03-1.2,0.04-1.79
		c0.76-31.54,7.13-61.67,18.13-89.48c-0.01,0.01-0.02,0.03-0.03,0.04c11.51-37.18,53.8-98.2,81.85-158.75
		c20.99-45.32,58.79-169.6,114.93-304.66c-70.55-96.89-119.54-180.88-164.58-292.92c-56.31-140.07-106.52-324.03-43.12-393.38
		c95.78-104.77,450.86,52.02,646.26,163.32c106.72-53.36,212.06-75.37,315.48-85.18c42.74-4.05,85.16-6.01,127.61-5.71
		c0.94-0.01,1.88,0.02,2.82,0.02v-649.62c-53.22,0.1-106.49-1.24-164.7-8.11c-116.61-13.77-253.08-49.71-364.36-86.17
		c-108.64-35.58-193.29-71.65-272.42-119.63c-172.77-104.76-289.8-269.44-286.91-396.17c0.01-0.59,0.03-1.19,0.04-1.78
		c0.75-31.3,7.08-61.21,18-88.81c-0.01,0.01-0.02,0.02-0.03,0.04c11.43-36.9,53.4-97.46,81.24-157.56
		c22.91-49.45,65.95-193.6,131.21-342.57c-58.53-97.51-98.52-182.68-132.68-293.52c-44.12-143.19-78.6-329.29-10.16-392.65
		c97.43-90.19,403.37,68.34,592.38,192.54c95.2-42.34,189.24-61.03,281.74-69.8c42.42-4.02,84.52-5.97,126.66-5.66V0h-201.78
		c5.19,17.15,3.16,36.62-8.3,53.37c43.92,15.11,56.68,71.09,23.65,103.74c-33.03,32.65-88.86,19.24-103.46-24.85
		c-82.27,27.23-170.23,56.35-252.5,83.59c14.6,44.09-22.2,88.17-68.19,81.68c-45.99-6.49-69.15-59.03-42.92-97.36
		c-43.92-15.11-56.68-71.09-23.65-103.74c33.03-32.65,88.86-19.24,103.46,24.85c82.27-27.23,170.23-56.35,252.5-83.59
		c-4.3-13-4.11-25.99-0.56-37.69h-684.72c-21.63,32.71-47.53,56.21-63.76,65.41v0c0,0,0,0,0,0c0,0,0,0,0,0l0,0
		c-22.2,1.52-67.04-6.29-110.12-29.4c-13.19-7.08-29.74-20.03-43.19-36.01h-315.92c12.59,35.34,22.76,63.27,30.59,80.16
		c27.98,60.38,70.15,121.23,81.64,158.31c-0.01-0.01-0.02-0.03-0.03-0.04c10.97,27.72,17.33,57.78,18.09,89.23
		c0.01,0.59,0.03,1.19,0.04,1.79c2.92,127.33-114.65,292.8-288.24,398.07c-79.51,48.22-164.55,84.46-273.7,120.22
		c-111.81,36.64-248.92,72.76-366.09,86.6c-58.49,6.91-112.01,8.25-165.48,8.16c-53.47,0.1-106.99-1.23-165.48-8.13
		c-117.17-13.82-254.28-49.93-366.1-86.55c-109.16-35.75-194.21-71.98-273.72-120.18c-173.6-105.24-291.2-270.69-288.3-398.03
		c0.01-0.6,0.03-1.19,0.04-1.79c0.76-31.45,7.11-61.5,18.08-89.23c-0.01,0.01-0.02,0.03-0.03,0.04
		c11.48-37.07,53.64-97.93,81.61-158.32c7.84-16.92,18.03-44.9,30.63-80.32h-308.43c14.14,33.65-3.75,74.73-41.95,84.68
		c23.23,40.22-3.88,90.84-50.23,93.8c-46.35,2.96-79.68-43.8-61.76-86.64C1000.25,61.97,924.43,30.26,852.06,0h-31.68
		c-22.22,33.27-71.47,37.99-99.14,6.11c-1.71-1.97-3.22-4.02-4.64-6.11H0v539.38c42.14-0.3,84.24,1.64,126.66,5.66
		c92.5,8.77,186.54,27.46,281.74,69.8c189.01-124.2,494.95-282.73,592.38-192.54c68.44,63.36,33.97,249.46-10.16,392.65
		c-34.16,110.84-74.16,196.01-132.68,293.52c65.26,148.97,108.31,293.12,131.21,342.57c27.84,60.1,69.81,120.67,81.24,157.56
		c-0.01-0.01-0.02-0.02-0.03-0.04c10.92,27.59,17.24,57.51,18,88.81c0.01,0.59,0.03,1.18,0.04,1.78
		c2.89,126.73-114.13,291.41-286.91,396.17c-79.13,47.98-163.78,84.05-272.42,119.63c-111.29,36.45-247.75,72.4-364.36,86.17
		c-58.22,6.87-111.48,8.21-164.7,8.11v649.62c41.51-0.2,83,1.73,124.79,5.69c104.38,9.9,210.71,32.28,318.44,86.71
		c194.82-111.38,552.72-270.11,648.95-164.85c63.4,69.35,13.19,253.31-43.12,393.38c-45.81,113.95-95.66,198.86-168.17,297.86
		c55.02,133.14,92.14,254.95,112.88,299.72c28.05,60.55,70.33,121.57,81.85,158.75c-0.01-0.01-0.02-0.03-0.03-0.04
		c11,27.8,17.37,57.94,18.13,89.48c0.01,0.6,0.03,1.19,0.04,1.79c2.92,127.68-114.99,293.6-289.06,399.15
		c-79.73,48.34-165.01,84.68-274.47,120.53c-112.12,36.73-249.61,72.94-367.1,86.81c-57.63,6.8-110.44,8.21-163.12,8.16V5000h716.6
		c-23.75-35.01-6.28-84.47,36.14-95.52c-23.23-40.22,3.88-90.84,50.23-93.8c46.35-2.96,79.68,43.79,61.76,86.64
		c79.95,33.43,165.44,69.18,245.38,102.61c17.92-42.85,74.61-51.96,105.05-16.88c4.57,5.27,7.95,11.01,10.45,16.95h308.43
		c21.07-59.2,48.93-139.24,83.96-223.51c-70.36-96.62-119.22-180.37-164.15-292.11c-56.16-139.68-106.26-323.13-43.03-392.3
		c95.51-104.49,449.63,51.84,644.5,162.82c106.42-53.22,211.47-75.18,314.61-84.97c42.62-4.05,84.92-6,127.26-5.7
		c42.34-0.31,84.64,1.64,127.26,5.68c104.1,9.87,210.13,32.17,317.57,86.45c194.27-111.09,551.18-269.41,647.15-164.45
		c63.24,69.16,13.17,252.62-42.97,392.31c-45.67,113.64-95.38,198.32-167.68,297.06c34.11,82.53,61.32,160.67,82,218.73h315.92
		c-9.72-11.55-17.82-24.68-21.83-38.37c-0.02-0.05-0.04-0.1-0.06-0.16c-11.47-38.18,10.18-78.44,48.36-89.91
		c27.99-8.41,57.04,1.03,75.1,21.68c3.69-27.19,22.73-51.07,50.72-59.48c38.18-11.47,78.44,10.18,89.91,48.36
		c0.02,0.05,0.02,0.11,0.04,0.16c10.03,32.5-1.01,75.2-13.25,97.9c-3.74,6.94-7.76,13.53-11.92,19.82h684.72
		c8.49-27.99,36.32-48.57,68.75-43.99c25.89,3.65,44.54,21.9,51.22,43.99H5000v-257.99
		C4999.06,4742.01,4998.12,4742.02,4997.18,4742.01z M4706.16,2541.28c34.89-11.61,71.78-0.82,95.26,24.48
		c3.63-34.33,26.7-65.08,61.59-76.69c47.6-15.84,99.03,9.9,114.87,57.5c0.02,0.07,0.03,0.14,0.06,0.2
		c13.82,40.5,1.51,94.62-13.04,123.62c-27.6,54.97-68.08,95.48-92.03,110v0c0,0,0,0,0,0c0,0,0,0,0,0v0
		c-27.87,2.73-84.55-5.43-139.59-32.89c-29.03-14.49-71.32-50.44-84.53-91.14c-0.02-0.07-0.06-0.13-0.08-0.2
		C4632.82,2608.56,4658.56,2557.13,4706.16,2541.28z M424.6,165.77c-0.02,0.07-0.05,0.13-0.07,0.2
		c-11.63,41.18-52.5,78.73-80.96,94.33c-53.94,29.57-110.27,39.91-138.22,38.25v0c0,0,0,0,0,0c0,0,0,0,0,0v0
		c-24.49-13.58-66.5-52.5-96.2-106.37c-15.66-28.42-30.05-82.02-17.8-123.03c0.02-0.07,0.03-0.14,0.05-0.21
		c14-48.17,64.4-75.88,112.57-61.88c35.31,10.26,59.54,40.1,64.5,74.26c22.49-26.19,58.94-38.4,94.25-28.14
		C410.9,67.2,438.6,117.6,424.6,165.77z M657.23,2657.19c-36.55,28.65-90.48,8.94-99.93-36.54
		c-84.84,17.64-175.57,36.49-260.41,54.13c9.45,45.47-32.15,85.05-77.1,73.33c-44.94-11.71-61.94-66.56-31.49-101.64
		c-41.9-20.03-48.17-77.11-11.62-105.77c36.55-28.65,90.48-8.94,99.93,36.53c84.84-17.64,175.57-36.49,260.41-54.13
		c-9.45-45.47,32.15-85.05,77.1-73.33c44.94,11.71,61.94,66.56,31.49,101.64C687.51,2571.46,693.78,2628.54,657.23,2657.19z
		 M2963.47,1192.82c0.03-0.06,0.05-0.13,0.09-0.19c22.66-44.76,77.32-62.66,122.07-40c32.81,16.61,51.1,50.42,49.65,84.91
		c26.95-21.58,65.02-26.84,97.83-10.22c44.75,22.67,62.66,77.32,40,122.07c-0.03,0.06-0.07,0.12-0.1,0.18
		c-19.05,38.32-66.16,67.67-97,77.73c-58.48,19.08-115.75,18.83-142.91,12.03v0c0,0,0,0,0,0c0,0,0,0,0,0v0
		c-21.55-17.88-55.65-63.89-74.87-122.32C2948.07,1286.2,2943.85,1230.86,2963.47,1192.82z M1874.31,1315.52
		c27.23-37.63,84.5-33.55,106.14,7.55c76.68-40.36,158.68-83.52,235.37-123.87c-21.63-41.1,7.44-90.62,53.87-91.76
		c46.43-1.14,77.9,46.89,58.31,89c45.8,7.7,67.58,60.83,40.35,98.46c-27.23,37.63-84.5,33.55-106.14-7.55
		c-76.68,40.36-158.68,83.52-235.37,123.87c21.63,41.1-7.44,90.62-53.87,91.76c-46.43,1.14-77.9-46.89-58.31-89
		C1868.86,1406.28,1847.08,1353.14,1874.31,1315.52z M1285.73,1005c27.99-8.41,57.04,1.03,75.11,21.68
		c3.69-27.19,22.73-51.07,50.72-59.48c38.18-11.47,78.44,10.18,89.91,48.36c0.02,0.05,0.02,0.11,0.04,0.16
		c10.03,32.5-1.01,75.2-13.25,97.9c-23.21,43.03-56.32,74.26-75.68,85.23v0c0,0,0,0,0,0c0,0,0,0,0,0l0,0
		c-22.2,1.52-67.04-6.29-110.12-29.4c-22.72-12.19-55.48-41.74-65.02-74.38c-0.02-0.05-0.04-0.1-0.06-0.16
		C1225.89,1056.73,1247.54,1016.47,1285.73,1005z M1197.85,2443.85c-46.24,15.87-91.75,16.35-113.42,11.28l0,0c0,0,0,0,0,0
		c0,0,0,0,0,0v0c-17.34-13.95-44.99-50.1-60.97-96.3c-8.43-24.37-12.45-68.3,2.69-98.76c0.02-0.05,0.04-0.1,0.07-0.16
		c17.47-35.84,60.69-50.72,96.53-33.25c26.27,12.81,41.21,39.45,40.47,66.88c21.15-17.47,51.35-22.11,77.62-9.3
		c35.84,17.47,50.72,60.69,33.25,96.53c-0.02,0.05-0.06,0.1-0.08,0.15C1259.32,2411.59,1222.24,2435.48,1197.85,2443.85z
		 M1522.6,3768.99c-12.93,44.61-68.22,60.11-102.45,28.73c-21.16,41.34-78.39,46.06-106.04,8.75
		c-27.65-37.32-6.48-90.69,39.23-98.91c-15.33-85.29-31.72-176.49-47.06-261.78c-45.71,8.22-84.15-34.45-71.22-79.05
		c12.93-44.61,68.22-60.11,102.45-28.73c21.16-41.34,78.39-46.06,106.04-8.75c27.65,37.31,6.48,90.69-39.23,98.91
		c15.33,85.29,31.72,176.49,47.06,261.78C1497.09,3681.72,1535.53,3724.38,1522.6,3768.99z M2229.52,3777.59
		c-0.03,0.07-0.06,0.13-0.09,0.19c-14.94,40.1-58.72,74.21-88.35,87.45c-56.16,25.09-113.14,30.82-140.87,26.9l0,0c0,0,0,0,0,0
		c0,0,0,0,0,0l0,0c-23.3-15.53-62.02-57.72-87.24-113.83c-13.31-29.59-23.29-84.19-7.75-124.06c0.03-0.07,0.04-0.14,0.07-0.2
		c17.86-46.88,70.35-70.4,117.23-52.54c34.36,13.09,56.09,44.8,58.25,79.25c24.54-24.28,61.86-33.48,96.22-20.39
		C2223.86,3678.23,2247.38,3730.71,2229.52,3777.59z M3114.7,3732.32c-26.21,38.34-83.57,35.81-106.3-4.69
		c-75.57,42.4-156.38,87.75-231.95,130.15c22.73,40.5-5,90.78-51.39,93.17c-46.38,2.39-79.13-44.78-60.68-87.4
		c-45.99-6.46-69.19-58.99-42.98-97.34c26.21-38.34,83.57-35.81,106.3,4.69c75.57-42.41,156.38-87.75,231.95-130.15
		c-22.73-40.5,5-90.78,51.39-93.17s79.13,44.78,60.68,87.4C3117.71,3641.45,3140.91,3693.97,3114.7,3732.32z M3297.45,3222.98
		c-79.01,47.91-163.53,83.92-272,119.45c-111.12,36.4-247.37,72.29-363.8,86.03c-58.13,6.86-111.31,8.19-164.45,8.1
		c-53.14,0.1-106.32-1.23-164.45-8.1c-116.43-13.74-252.69-49.64-363.8-86.03c-108.47-35.53-192.99-71.54-272-119.45
		c-172.51-104.6-289.35-269.02-286.46-395.56c0.01-0.59,0.03-1.18,0.04-1.78c0.75-31.25,7.07-61.12,17.97-88.67
		c-0.01,0.01-0.02,0.02-0.03,0.04c11.41-36.84,53.32-97.31,81.11-157.32c20.8-44.91,58.26-168.07,113.9-301.92
		c-69.91-96.02-118.46-179.25-163.1-290.29c-55.8-138.81-105.57-321.12-42.73-389.84c94.92-103.83,446.8,51.55,640.45,161.85
		c105.76-52.88,210.15-74.69,312.65-84.41c42.35-4.02,84.39-5.96,126.46-5.66c42.07-0.3,84.11,1.64,126.46,5.66
		c103.44,9.81,208.81,31.98,315.58,85.93c193.06-110.38,547.75-267.68,643.11-163.37c62.83,68.73,13.07,251.04-42.73,389.84
		c-45.4,112.93-94.8,197.07-166.66,295.19c54.53,131.94,91.31,252.66,111.86,297.02c27.8,60.01,69.7,120.48,81.11,157.32
		c-0.01-0.01-0.02-0.02-0.03-0.04c10.9,27.55,17.22,57.42,17.97,88.67c0.01,0.59,0.03,1.18,0.04,1.78
		C3586.81,2953.96,3469.96,3118.38,3297.45,3222.98z M3794.36,3665.09c0,0.05-0.02,0.11-0.02,0.16
		c-2.93,32.93-28.58,67.29-47.95,83.2c-36.71,30.17-77.99,46.08-99.45,48.83v0c0,0,0,0,0,0c0,0,0,0,0,0v0
		c-20.53-6.8-58-30.33-88.26-66.97c-15.96-19.33-34.55-57.96-31.13-90.84c0.01-0.05,0-0.11,0.01-0.16
		c3.73-38.57,38.02-66.82,76.6-63.09c28.27,2.73,50.94,21.91,59.59,47.14c13.32-23.1,39.24-37.59,67.52-34.85
		C3769.84,3592.22,3798.09,3626.51,3794.36,3665.09z M3754.43,1250c-19.43,42.19-76.41,49.28-105.59,13.15
		c-29.18-36.13-10.25-90.34,35.08-100.45c-18.86-84.58-39.03-175.02-57.9-259.6c-45.33,10.11-85.5-30.92-74.44-76.03
		c11.06-45.11,65.66-62.9,101.17-32.96c19.43-42.19,76.41-49.28,105.59-13.15c29.18,36.13,10.25,90.34-35.08,100.45
		c18.86,84.58,39.03,175.02,57.9,259.6c45.33-10.11,85.5,30.92,74.44,76.03C3844.54,1262.15,3789.94,1279.93,3754.43,1250z
		 M3863.11,2475.14c-31.19-34.42-15.36-89.62,29.32-102.28c-24.08-39.71,1.93-90.9,48.21-94.85c46.28-3.95,80.6,42.08,63.6,85.3
		c80.64,31.71,166.88,65.63,247.52,97.34c17-43.22,73.48-53.54,104.67-19.13c31.19,34.42,15.36,89.62-29.32,102.28
		c24.08,39.71-1.93,90.9-48.21,94.86c-46.28,3.95-80.6-42.08-63.6-85.3c-80.64-31.71-166.88-65.63-247.52-97.34
		C3950.78,2499.23,3894.29,2509.56,3863.11,2475.14z"/>
	<path class="st0" d="M820.38,5000h31.68c-8.63-3.61-17.24-7.21-25.77-10.78C824.66,4993.13,822.61,4996.66,820.38,5000z"/>
	<path class="st1" d="M1421.8,238.63c0.01-0.01,0.02-0.02,0.03-0.04c4.7-11.88,10.25-23.33,16.57-34.28
		c6.32-10.95,13.42-21.39,21.21-31.25c1.95-2.47,3.94-4.9,5.98-7.29c4.07-4.78,8.31-9.42,12.71-13.89
		c11-11.19,23.01-21.39,35.87-30.44c5.15-3.62,10.43-7.06,15.84-10.31c2.71-1.62,5.44-3.2,8.21-4.73c5.54-3.05,11.2-5.91,16.97-8.56
		c5.77-2.65,11.66-5.1,17.65-7.33c8.99-3.35,18.21-6.21,27.63-8.55c6.28-1.56,12.65-2.9,19.11-4c12.91-2.19,26.14-3.43,39.61-3.64
		c36.77-0.57,74.38,3.25,110.52,10.45c137.27,27.34,253.43,103.42,371.27,187.78c96.75-91.13,220.81-148.42,356.29-149.21
		c135.48,0.77,259.55,58.03,356.31,149.15c117.82-84.38,233.97-160.47,371.24-187.84c36.14-7.2,73.74-11.03,110.52-10.47
		c30.32,0.46,59.39,6.14,86.35,16.17c5.99,2.23,11.88,4.68,17.65,7.33c20.21,9.28,39.02,21.08,56.04,35
		c7.29,5.97,14.26,12.32,20.86,19.03c4.4,4.48,8.64,9.11,12.71,13.89c4.07,4.78,7.97,9.72,11.69,14.79
		c13.02,17.76,23.85,37.23,32.08,58.02c0.01,0.01,0.02,0.02,0.03,0.04c-11.48-37.07-53.66-97.92-81.64-158.31
		c-7.83-16.89-18-44.82-30.59-80.16H2952.7c14.73,10.54,24.37,27.75,24.37,47.25c0,32.09-26.01,58.11-58.11,58.12
		c-32.09,0-58.11-26.01-58.12-58.11c0-19.5,9.64-36.72,24.37-47.26h-776c14.79,10.53,24.46,27.78,24.46,47.32
		c0,32.09-26.01,58.11-58.11,58.12c-32.1,0-58.12-26.01-58.12-58.11c0-19.54,9.67-36.79,24.46-47.32h-507.86
		c-12.61,35.42-22.8,63.4-30.63,80.32C1475.44,140.7,1433.28,201.56,1421.8,238.63z"/>
	<path class="st2" d="M3528.94,165.62c-4.07-4.78-8.31-9.42-12.71-13.89c-6.6-6.71-13.56-13.07-20.86-19.03
		c-17.02-13.92-35.83-25.72-56.04-35c-5.77-2.65-11.66-5.1-17.65-7.33c-26.96-10.03-56.03-15.71-86.35-16.17
		c-36.77-0.56-74.38,3.27-110.52,10.47c-137.26,27.36-253.41,103.46-371.24,187.84c-96.76-91.12-220.83-148.38-356.31-149.15
		c-135.48,0.79-259.54,58.07-356.29,149.21c-117.84-84.36-234-160.44-371.27-187.78c-36.14-7.2-73.74-11.02-110.52-10.45
		c-13.48,0.21-26.71,1.45-39.61,3.64c-6.45,1.1-12.82,2.43-19.11,4c-9.42,2.35-18.64,5.21-27.63,8.55
		c-5.99,2.23-11.88,4.68-17.65,7.33c-5.77,2.65-11.43,5.51-16.97,8.56c-2.77,1.53-5.5,3.1-8.21,4.73
		c-5.41,3.25-10.69,6.69-15.84,10.31c-12.86,9.06-24.87,19.25-35.87,30.44c-4.4,4.48-8.64,9.11-12.71,13.89
		c-2.03,2.39-4.03,4.82-5.98,7.29c-7.8,9.86-14.89,20.3-21.21,31.25c-6.32,10.95-11.87,22.4-16.57,34.28
		c-10.97,27.73-17.32,57.78-18.08,89.23c-0.01,0.59-0.03,1.19-0.04,1.79c-2.9,127.33,114.7,292.78,288.3,398.03
		c79.51,48.2,164.56,84.44,273.72,120.18c111.82,36.62,248.93,72.72,366.1,86.55c58.49,6.9,112.01,8.24,165.48,8.13
		c53.47,0.09,106.99-1.25,165.48-8.16c117.17-13.84,254.28-49.97,366.09-86.6c109.15-35.76,194.2-72.01,273.7-120.22
		c173.59-105.27,291.15-270.74,288.24-398.07c-0.01-0.6-0.03-1.19-0.04-1.79c-0.76-31.45-7.12-61.5-18.09-89.23
		c-8.23-20.79-19.05-40.26-32.08-58.02C3536.91,175.33,3533.01,170.4,3528.94,165.62z M1901.95,369.99
		c-9.32,78.24-66.88,120.42-82.63,131.56c-15.15,10.72-87.96,59.12-181.78,32.55c-67.83-19.21-126.32-71.86-147.7-140.19
		c-4.05-12.93-24.87-84.31,16.25-149.82c31.57-50.3,78.22-70.67,98.22-77.64c60.63-21.13,113.47-7.21,133-2.72
		c29.73,6.84,80.13,26.74,119.49,73.09C1904.28,292.72,1904.18,351.29,1901.95,369.99z M2738.45,439.95
		c-18.44,18.82-39.32,33.31-62.07,43.09c-9.69,4.16-34.12,14.66-67.17,14.66c-11.32,0-23.64-1.23-36.73-4.37
		c-32.27-7.73-57.26-24.18-75.19-40.29c-17.92,16.11-42.91,32.56-75.18,40.3c-13.09,3.14-25.42,4.37-36.73,4.37
		c-33.05,0-57.48-10.49-67.17-14.66c-22.75-9.77-43.63-24.26-62.08-43.07c-8.06-8.22-7.93-21.41,0.29-29.47
		c8.22-8.05,21.41-7.93,29.47,0.29c14.62,14.91,31.03,26.34,48.76,33.95c9.87,4.24,39.89,17.13,77.74,8.05
		c28.65-6.87,50.02-23.19,64.06-37.49l0-50.54c-12.61-5.79-24.88-12.5-37.07-19.57c-24.74-14.35-49.25-29.95-64.06-57.08
		c-9.52-17.44-15.03-39.65-8.01-56.15c6.02-14.14,21.25-24.08,36.47-29.95c20.99-8.09,41.97-8.44,63.16-9.36
		c10.08-0.44,20.21-1,30.33-0.94c10.11-0.07,20.25,0.5,30.33,0.93c21.2,0.92,42.18,1.27,63.17,9.35
		c15.23,5.87,30.46,15.8,36.48,29.94c7.02,16.49,1.51,38.7-8,56.15c-14.8,27.13-39.31,42.74-64.05,57.09
		c-12.19,7.07-24.46,13.79-37.07,19.58l0,50.54c14.04,14.3,35.42,30.61,64.07,37.48c37.86,9.08,67.87-3.82,77.73-8.06
		c17.73-7.62,34.14-19.04,48.75-33.96c8.05-8.22,21.25-8.36,29.47-0.3C2746.37,418.54,2746.5,431.73,2738.45,439.95z
		 M3509.72,393.76c-21.37,68.33-79.85,120.99-147.68,140.21c-93.82,26.59-166.64-21.8-181.79-32.52
		c-15.75-11.14-73.32-53.31-82.65-131.55c-2.23-18.7-2.34-77.27,45.13-133.18c39.36-46.36,89.75-66.26,119.48-73.11
		c19.53-4.5,72.36-18.42,133,2.7c20,6.97,66.65,27.33,98.23,77.63C3534.58,309.45,3513.76,380.82,3509.72,393.76z"/>
	<path class="st3" d="M2017.45,47.32c0,32.09,26.02,58.11,58.12,58.11c32.09,0,58.11-26.02,58.11-58.12
		c0-19.54-9.68-36.78-24.46-47.32h-67.3C2027.12,10.54,2017.44,27.78,2017.45,47.32z"/>
	<path class="st3" d="M2860.84,47.26c0,32.09,26.02,58.11,58.12,58.11c32.09,0,58.11-26.02,58.11-58.12
		c0-19.5-9.64-36.71-24.37-47.25h-67.48C2870.48,10.54,2860.84,27.76,2860.84,47.26z"/>
	<path class="st3" d="M2708.68,410.79c-14.62,14.92-31.02,26.34-48.75,33.96c-9.86,4.24-39.88,17.14-77.73,8.06
		c-28.65-6.87-50.02-23.18-64.07-37.48l0-50.54c12.61-5.79,24.88-12.51,37.07-19.58c24.74-14.35,49.25-29.96,64.05-57.09
		c9.52-17.45,15.03-39.66,8-56.15c-6.02-14.14-21.25-24.08-36.48-29.94c-20.99-8.09-41.97-8.44-63.17-9.35
		c-10.08-0.44-20.21-1-30.33-0.93c-10.11-0.06-20.25,0.5-30.33,0.94c-21.2,0.92-42.18,1.27-63.16,9.36
		c-15.22,5.87-30.45,15.81-36.47,29.95c-7.02,16.49-1.51,38.7,8.01,56.15c14.81,27.13,39.31,42.73,64.06,57.08
		c12.19,7.07,24.46,13.78,37.07,19.57l0,50.54c-14.04,14.3-35.41,30.62-64.06,37.49c-37.85,9.08-67.87-3.81-77.74-8.05
		c-17.73-7.61-34.14-19.04-48.76-33.95c-8.06-8.22-21.25-8.35-29.47-0.29c-8.22,8.06-8.35,21.25-0.29,29.47
		c18.44,18.81,39.33,33.31,62.08,43.07c9.69,4.16,34.12,14.66,67.17,14.66c11.32,0,23.65-1.24,36.73-4.37
		c32.27-7.74,57.26-24.19,75.18-40.3c17.93,16.1,42.92,32.55,75.19,40.29c13.09,3.14,25.42,4.37,36.73,4.37
		c33.04,0,57.48-10.5,67.17-14.66c22.75-9.77,43.63-24.27,62.07-43.09c8.06-8.22,7.92-21.41-0.3-29.47
		C2729.93,402.43,2716.74,402.57,2708.68,410.79z"/>
	<path class="st4" d="M1737.31,163.73c-19.53-4.49-72.36-18.41-133,2.72c-20,6.97-66.65,27.34-98.22,77.64
		c-41.13,65.52-20.3,136.89-16.25,149.82c21.38,68.32,79.87,120.97,147.7,140.19c93.82,26.58,166.64-21.83,181.78-32.55
		c15.75-11.14,73.31-53.32,82.63-131.56c2.23-18.7,2.33-77.27-45.15-133.18C1817.44,190.47,1767.04,170.57,1737.31,163.73z"/>
	<path class="st4" d="M3395.21,166.3c-60.64-21.12-113.47-7.2-133-2.7c-29.73,6.85-80.12,26.75-119.48,73.11
		c-47.47,55.91-47.36,114.49-45.13,133.18c9.33,78.23,66.9,120.41,82.65,131.55c15.15,10.71,87.97,59.11,181.79,32.52
		c67.82-19.22,126.31-71.88,147.68-140.21c4.04-12.93,24.86-84.31-16.28-149.82C3461.86,193.64,3415.21,173.27,3395.21,166.3z"/>
	<path class="st1" d="M3546.2,4484.21c56.14-139.69,106.21-323.15,42.97-392.31c-95.97-104.96-452.88,53.36-647.15,164.45
		c-107.44-54.28-213.48-76.58-317.57-86.45c-42.62-4.04-84.92-5.99-127.26-5.68c-42.34-0.3-84.64,1.65-127.26,5.7
		c-103.14,9.79-208.19,31.75-314.61,84.97c-194.88-110.98-548.99-267.31-644.5-162.82c-63.23,69.17-13.13,252.62,43.03,392.3
		c44.93,111.73,93.79,195.48,164.15,292.11c-35.03,84.28-62.88,164.31-83.96,223.51h507.86c9.5-6.77,21.09-10.79,33.65-10.79
		c12.56,0,24.15,4.02,33.66,10.79h776c9.52-6.81,21.14-10.86,33.74-10.86c12.6,0,24.23,4.05,33.75,10.86h507.82
		c-20.68-58.06-47.89-136.19-82-218.73C3450.81,4682.54,3500.52,4597.86,3546.2,4484.21z M1817,4433.84
		c-60.92,66.05-112.89,155.18-156.41,246.67c-60.18-92.25-81.47-129.45-104.38-178.83c-45.9-98.92-98.33-246.77-67-287.86
		c42.09-55.2,235.37,82.3,361.18,186.05C1838.85,4410.91,1827.69,4422.25,1817,4433.84z M2191.91,4862.56
		c-9.38,45.37-154.04,29.26-169.22-27.98c-7.28-27.45,21.37-62.57,59.75-65.74C2142.21,4763.9,2198.92,4828.66,2191.91,4862.56z
		 M2977.51,4834.5c-15.17,57.23-159.83,73.37-169.22,28c-7.02-33.89,49.68-98.66,109.46-93.74
		C2956.13,4771.93,2984.79,4807.05,2977.51,4834.5z M3177.42,4433.73c-9.89-10.72-20.19-21.21-30.81-31.45
		c125.69-104.04,321.75-244.26,364.19-188.62c31.33,41.08-21.08,188.94-66.96,287.87c-23.31,50.26-44.97,87.93-107.6,183.83
		C3292.23,4592.13,3239.46,4500.97,3177.42,4433.73z"/>
	<path class="st5" d="M3510.8,4213.66c-42.44-55.65-238.49,84.58-364.19,188.62c10.61,10.25,20.92,20.73,30.81,31.45
		c62.04,67.24,114.81,158.4,158.82,251.62c62.64-95.89,84.29-133.57,107.6-183.83C3489.72,4402.6,3542.13,4254.75,3510.8,4213.66z"
		/>
	<path class="st5" d="M1489.2,4213.82c-31.33,41.09,21.1,188.94,67,287.86c22.91,49.38,44.2,86.58,104.38,178.83
		c43.52-91.49,95.49-180.62,156.41-246.67c10.69-11.59,21.86-22.93,33.39-33.97C1724.58,4296.13,1531.29,4158.62,1489.2,4213.82z"/>
	<path class="st2" d="M2082.44,4768.84c-38.38,3.17-67.03,38.29-59.75,65.74c15.18,57.23,159.84,73.35,169.22,27.98
		C2198.92,4828.66,2142.21,4763.9,2082.44,4768.84z"/>
	<path class="st2" d="M2917.75,4768.77c-59.78-4.93-116.47,59.84-109.46,93.74c9.39,45.37,154.05,29.23,169.22-28
		C2984.79,4807.05,2956.13,4771.93,2917.75,4768.77z"/>
	<path class="st3" d="M2041.91,5000h67.3c-9.5-6.77-21.1-10.79-33.66-10.79C2063,4989.21,2051.41,4993.23,2041.91,5000z"/>
	<path class="st3" d="M2885.21,5000h67.48c-9.52-6.81-21.15-10.86-33.75-10.86C2906.35,4989.14,2894.73,4993.19,2885.21,5000z"/>
	<path class="st6" d="M1237.42,1095.07c9.54,32.64,42.3,62.19,65.02,74.38c43.08,23.11,87.92,30.92,110.12,29.4l0,0c0,0,0,0,0,0
		c0,0,0,0,0,0v0c19.36-10.97,52.47-42.2,75.68-85.23c12.24-22.7,23.28-65.4,13.25-97.9c-0.02-0.05-0.02-0.11-0.04-0.16
		c-11.47-38.18-51.73-59.84-89.91-48.36c-27.99,8.41-47.03,32.3-50.72,59.48c-18.06-20.65-47.12-30.09-75.11-21.68
		c-38.18,11.47-59.84,51.73-48.36,89.91C1237.38,1094.96,1237.4,1095.02,1237.42,1095.07z"/>
	<path class="st6" d="M1274,2380.91c0.03-0.05,0.06-0.1,0.08-0.15c17.47-35.84,2.59-79.05-33.25-96.53
		c-26.27-12.81-56.46-8.17-77.62,9.3c0.74-27.43-14.21-54.07-40.47-66.88c-35.84-17.47-79.05-2.59-96.53,33.25
		c-0.02,0.05-0.04,0.1-0.07,0.16c-15.13,30.46-11.11,74.39-2.69,98.76c15.98,46.2,43.62,82.36,60.97,96.3v0c0,0,0,0,0,0c0,0,0,0,0,0
		l0,0c21.67,5.07,67.18,4.59,113.42-11.28C1222.24,2435.48,1259.32,2411.59,1274,2380.91z"/>
	<path class="st6" d="M3819.63,36.01c43.08,23.11,87.92,30.92,110.12,29.4l0,0c0,0,0,0,0,0c0,0,0,0,0,0v0
		c16.24-9.2,42.14-32.7,63.76-65.41h-217.08C3789.88,15.99,3806.43,28.94,3819.63,36.01z"/>
	<path class="st6" d="M3033.08,1439.34L3033.08,1439.34C3033.08,1439.34,3033.08,1439.34,3033.08,1439.34
		C3033.09,1439.34,3033.09,1439.34,3033.08,1439.34L3033.08,1439.34c27.17,6.8,84.44,7.05,142.92-12.03
		c30.85-10.07,77.95-39.41,97-77.73c0.03-0.06,0.07-0.12,0.1-0.18c22.66-44.75,4.76-99.41-40-122.07
		c-32.81-16.61-70.88-11.36-97.83,10.22c1.45-34.49-16.84-68.29-49.65-84.91c-44.75-22.66-99.41-4.76-122.07,40
		c-0.03,0.06-0.05,0.13-0.09,0.19c-19.62,38.03-15.4,93.37-5.26,124.2C2977.44,1375.45,3011.53,1421.46,3033.08,1439.34z"/>
	<path class="st6" d="M2176.98,3660.37c-34.36-13.09-71.68-3.89-96.22,20.39c-2.16-34.45-23.89-66.16-58.25-79.25
		c-46.88-17.86-99.36,5.66-117.23,52.54c-0.03,0.07-0.04,0.14-0.07,0.2c-15.54,39.87-5.55,94.47,7.75,124.06
		c25.22,56.1,63.94,98.3,87.24,113.83l0,0c0,0,0,0,0,0c0,0,0,0,0,0l0,0c27.72,3.92,84.71-1.81,140.87-26.9
		c29.63-13.23,73.41-47.34,88.35-87.45c0.03-0.07,0.06-0.13,0.09-0.19C2247.38,3730.71,2223.86,3678.23,2176.98,3660.37z"/>
	<path class="st6" d="M3731.26,3588.49c-28.27-2.73-54.2,11.75-67.52,34.85c-8.65-25.22-31.32-44.41-59.59-47.14
		c-38.58-3.73-72.87,24.52-76.6,63.09c0,0.05,0,0.11-0.01,0.16c-3.43,32.88,15.17,71.51,31.13,90.84
		c30.26,36.64,67.72,60.17,88.26,66.97v0c0,0,0,0,0,0c0,0,0,0,0,0v0c21.46-2.75,62.74-18.66,99.45-48.83
		c19.37-15.91,45.01-50.27,47.95-83.2c0.01-0.05,0.02-0.11,0.02-0.16C3798.09,3626.51,3769.84,3592.22,3731.26,3588.49z"/>
	<path class="st6" d="M362.72,53.2c-35.31-10.26-71.76,1.95-94.25,28.14c-4.95-34.16-29.18-64-64.5-74.26
		C155.8-6.92,105.4,20.78,91.4,68.96c-0.02,0.07-0.03,0.14-0.05,0.21c-12.25,41,2.14,94.61,17.8,123.03
		c29.7,53.87,71.71,92.78,96.2,106.37v0c0,0,0,0,0,0c0,0,0,0,0,0v0c27.95,1.65,84.28-8.68,138.22-38.25
		c28.45-15.6,69.32-53.15,80.96-94.33c0.02-0.07,0.05-0.13,0.07-0.2C438.6,117.6,410.9,67.2,362.72,53.2z"/>
	<path class="st6" d="M4648.74,2656.36c13.21,40.7,55.5,76.65,84.53,91.14c55.04,27.47,111.72,35.62,139.59,32.89v0c0,0,0,0,0,0
		c0,0,0,0,0,0v0c23.94-14.52,64.43-55.02,92.03-110c14.56-29,26.86-83.12,13.04-123.62c-0.02-0.07-0.04-0.14-0.06-0.2
		c-15.84-47.6-67.28-73.34-114.87-57.5c-34.89,11.61-57.95,42.36-61.59,76.69c-23.48-25.3-60.37-36.1-95.26-24.48
		c-47.6,15.84-73.34,67.28-57.5,114.87C4648.69,2656.23,4648.72,2656.29,4648.74,2656.36z"/>
	<path class="st7" d="M676.99,807.66c50.87,55.14,95.47,126.44,134.1,201.73c45-84.06,61.96-121.06,79.44-168.79
		c37.32-101.91,77.07-252.9,42.59-291.05c-43.66-48.31-206.33,84.29-322.16,194.58C634.25,764.15,656.48,785.43,676.99,807.66z"/>
	<path class="st8" d="M724.11,1455.51c35.97-7.17,73.39-10.97,110-10.41c107.31,1.64,198.83,68.89,236.24,163.47
		c0.01,0.01,0.02,0.02,0.03,0.04c-11.43-36.9-53.4-97.46-81.24-157.56c-22.91-49.45-65.95-193.6-131.21-342.57
		c58.53-97.51,98.52-182.68,132.68-293.52c44.12-143.19,78.6-329.29,10.16-392.65c-97.43-90.19-403.37,68.34-592.38,192.54
		c-95.2-42.34-189.24-61.03-281.74-69.8c-42.42-4.02-84.52-5.97-126.66-5.66v954.58c134.84,0.78,258.32,57.78,354.62,148.47
		C471.89,1558.46,587.5,1482.74,724.11,1455.51z M933.12,549.55c34.48,38.15-5.27,189.14-42.59,291.05
		c-17.48,47.73-34.45,84.73-79.44,168.79c-38.63-75.29-83.23-146.59-134.1-201.73c-20.51-22.23-42.75-43.52-66.03-63.53
		C726.79,633.84,889.46,501.24,933.12,549.55z M309.59,1234.38c-6.98-33.73,49.45-98.19,108.95-93.28
		c38.2,3.15,66.72,38.1,59.47,65.43C462.9,1263.48,318.93,1279.53,309.59,1234.38z M349.33,1425.3
		c4.24-10.88,16.88-17.47,31.06-24.05c41.24-19.15,95.55-38.27,134.36-35.92c17.5,1.06,31.85,6.48,43.25,20.28
		c7.73,9.37,14.1,22.59,13.86,32.82c-0.73,31.09-62.42,34.59-116.13,43.6c-41.86,7.02-78.87,17.4-97.25-0.85
		C349.5,1452.26,344.96,1436.5,349.33,1425.3z"/>
	<path class="st9" d="M164.7,2301.13c116.61-13.77,253.08-49.71,364.36-86.17c108.64-35.58,193.29-71.65,272.42-119.63
		c172.78-104.76,289.8-269.44,286.91-396.17c-0.01-0.59-0.03-1.19-0.04-1.78c-0.75-31.3-7.08-61.21-18-88.81
		c-37.42-94.59-128.93-161.83-236.24-163.47c-36.6-0.56-74.03,3.24-110,10.41c-136.61,27.22-252.22,102.95-369.5,186.92
		c-96.3-90.7-219.78-147.7-354.62-148.47v68.06c10.07-0.07,20.15,0.5,30.19,0.93c21.1,0.91,41.98,1.26,62.87,9.31
		c15.15,5.84,30.31,15.73,36.3,29.8c6.99,16.42,1.51,38.52-7.97,55.88c-14.74,27-39.12,42.53-63.75,56.81
		c-13.87,8.05-27.85,15.63-42.33,21.89v20.53c14.42,11.98,29.48,22.41,44.9,30.89c33.45,18.39,71.92,29.61,117.6,34.3
		c28.37,2.91,60.02,3.53,79.71-13.94c9.89-8.78,16.39-21.17,16.94-32.34c0.4-8.11-2.28-17.74-7.54-27.1
		c-4.62-8.22-1.7-18.64,6.52-23.26c8.22-4.63,18.64-1.71,23.26,6.52c5.93,10.55,12.8,27.01,11.88,45.54
		c-1.01,20.31-11.62,41.32-28.38,56.19c-10.85,9.63-23.18,15.69-36.2,19.33c-4.67,1.58-10.78,3.68-17.41,6.49
		c-27.02,11.45-47.01,26.1-63.12,51.94c-8.83,14.16-15.5,26.38-20.92,37.64c0.17,45.29-6.32,81.75-28.9,108.89
		c-14.62,17.58-35.99,31.27-58.88,38.68c-14.16,4.58-28.9,6.76-43.73,7.41c-3.68,0.12-7.37,0.14-11.05,0.06v204.82
		C53.22,2309.34,106.48,2308,164.7,2301.13z M652.17,1595.63c39.36-46.36,89.75-66.26,119.48-73.11c19.53-4.5,72.36-18.42,133,2.7
		c20,6.97,66.65,27.33,98.23,77.63c41.14,65.51,20.32,136.89,16.28,149.82c-21.37,68.33-79.85,120.99-147.68,140.21
		c-93.82,26.59-166.64-21.8-181.79-32.52c-15.75-11.14-73.32-53.31-82.65-131.55C604.81,1710.12,604.7,1651.54,652.17,1595.63z"/>
	<path class="st10" d="M478,1206.52c7.24-27.32-21.27-62.28-59.47-65.43c-59.49-4.91-115.92,59.55-108.95,93.28
		C318.93,1279.53,462.9,1263.48,478,1206.52z"/>
	<path class="st3" d="M455.73,1462.02c53.71-9.01,115.4-12.51,116.13-43.6c0.24-10.23-6.13-23.46-13.86-32.82
		c-11.39-13.8-25.75-19.22-43.25-20.28c-38.82-2.35-93.12,16.77-134.36,35.92c-14.18,6.58-26.82,13.17-31.06,24.05
		c-4.37,11.2,0.17,26.96,9.15,35.88C376.86,1479.42,413.87,1469.05,455.73,1462.02z"/>
	<path class="st3" d="M133.01,1839.33c0.19,0.04,0.38,0.08,0.56,0.12c4.64,33.26,8.43,71,8.95,104.18c0.03,1.94,0.03,3.84,0.04,5.75
		c5.42-11.26,12.09-23.49,20.92-37.64c16.11-25.83,36.1-40.48,63.12-51.94c6.63-2.81,12.73-4.91,17.41-6.49
		c13.02-3.64,25.35-9.7,36.2-19.33c16.77-14.88,27.38-35.88,28.38-56.19c0.92-18.53-5.95-34.99-11.88-45.54
		c-4.62-8.22-15.04-11.14-23.26-6.52c-8.22,4.62-11.14,15.04-6.52,23.26c5.27,9.36,7.94,18.99,7.54,27.1
		c-0.55,11.17-7.04,23.56-16.94,32.34c-19.69,17.47-51.35,16.85-79.71,13.94c-45.68-4.68-84.15-15.9-117.6-34.3
		c-15.42-8.48-30.48-18.91-44.9-30.89v-20.53c14.48-6.26,28.45-13.84,42.33-21.89c24.63-14.28,49.01-29.81,63.75-56.81
		c9.48-17.36,14.96-39.47,7.97-55.88c-5.99-14.07-21.15-23.96-36.3-29.8c-20.89-8.05-41.77-8.4-62.87-9.31
		c-10.04-0.43-20.12-1-30.19-0.93v213.78c15.33,11.5,39.33,27.69,56.35,36.32C80.6,1824.42,106.1,1833.21,133.01,1839.33z"/>
	<path class="st11" d="M11.05,2104.35c14.83-0.65,29.57-2.83,43.73-7.41c22.89-7.41,44.25-21.1,58.88-38.68
		c22.58-27.15,29.07-63.6,28.9-108.89c-0.01-1.91-0.01-3.81-0.04-5.75c-0.52-33.18-4.31-70.92-8.95-104.18
		c-0.19-0.04-0.38-0.08-0.56-0.12c3.11,32.17,5.2,67.94,4.49,99.49c-1.08,47.97-8.62,86.08-33.21,113.46
		c-15.28,17.01-37.15,29.87-60.31,36.41c-14.32,4.04-29.14,5.66-43.98,5.74v9.99C3.68,2104.5,7.36,2104.47,11.05,2104.35z"/>
	<path class="st12" d="M104.29,2052.28c24.59-27.37,32.13-65.48,33.21-113.46c0.71-31.55-1.38-67.32-4.49-99.49
		c-26.91-6.12-52.41-14.91-76.66-27.21c-17.02-8.63-41.02-24.82-56.35-36.32v87.27c0.65-1.79,1.26-3.59,1.98-5.35
		c-0.66,7.35-1.34,14.63-1.98,21.87v128.21c0.41,4.99,0.82,9.97,1.22,15.01c-0.44-1.11-0.8-2.26-1.22-3.38v75
		c14.84-0.08,29.66-1.7,43.98-5.74C67.14,2082.15,89.01,2069.29,104.29,2052.28z"/>
	<path class="st11" d="M0,2007.8v11.63c0.42,1.12,0.78,2.26,1.22,3.38C0.82,2017.77,0.41,2012.78,0,2007.8z"/>
	<path class="st11" d="M0,1863.07v16.52c0.64-7.25,1.32-14.52,1.98-21.87C1.26,1859.48,0.65,1861.28,0,1863.07z"/>
	<path class="st13" d="M689.69,1860.36c15.15,10.71,87.97,59.11,181.79,32.52c67.82-19.22,126.31-71.88,147.68-140.21
		c4.04-12.93,24.86-84.31-16.28-149.82c-31.58-50.3-78.23-70.66-98.23-77.63c-60.64-21.12-113.47-7.2-133-2.7
		c-29.73,6.85-80.12,26.75-119.48,73.11c-47.47,55.91-47.36,114.49-45.13,133.18C616.37,1807.05,673.94,1849.22,689.69,1860.36z"/>
	<path class="st7" d="M4066.88,549.55c-34.48,38.15,5.27,189.14,42.59,291.05c17.48,47.73,34.44,84.73,79.44,168.79
		c38.63-75.29,83.23-146.59,134.1-201.73c20.51-22.23,42.75-43.52,66.03-63.53C4273.21,633.84,4110.54,501.24,4066.88,549.55z"/>
	<path class="st8" d="M4873.34,545.04c-92.5,8.77-186.54,27.46-281.74,69.8c-189-124.2-494.95-282.73-592.38-192.54
		c-68.44,63.36-33.96,249.46,10.16,392.65c34.16,110.84,74.16,196.01,132.68,293.52c-65.26,148.97-108.31,293.12-131.21,342.57
		c-27.84,60.1-69.81,120.67-81.24,157.56c0.01-0.01,0.02-0.02,0.03-0.04c37.42-94.59,128.93-161.83,236.24-163.47
		c36.6-0.56,74.03,3.24,110,10.41c136.62,27.22,252.22,102.95,369.5,186.92c96.3-90.7,219.78-147.7,354.62-148.47V539.38
		C4957.86,539.07,4915.76,541.02,4873.34,545.04z M4323.01,807.66c-50.87,55.14-95.47,126.44-134.1,201.73
		c-45-84.06-61.96-121.06-79.44-168.79c-37.32-101.91-77.07-252.9-42.59-291.05c43.66-48.31,206.33,84.29,322.16,194.58
		C4365.75,764.15,4343.52,785.43,4323.01,807.66z M4641.79,1461.17c-17.92,18.25-53.98,7.87-94.78,0.85
		c-52.34-9.01-112.47-12.51-113.18-43.6c-0.23-10.23,5.97-23.46,13.5-32.82c11.1-13.8,25.09-19.22,42.15-20.28
		c37.83-2.35,90.76,16.77,130.95,35.92c13.82,6.58,26.14,13.17,30.28,24.05C4654.97,1436.5,4650.55,1452.26,4641.79,1461.17z
		 M4696.11,1234.38c-9.34,45.15-153.32,29.1-168.42-27.86c-7.24-27.32,21.27-62.28,59.47-65.43
		C4646.66,1136.19,4703.09,1200.65,4696.11,1234.38z"/>
	<path class="st9" d="M4275.89,1455.51c-35.97-7.17-73.4-10.97-110-10.41c-107.31,1.64-198.83,68.89-236.24,163.47
		c-10.92,27.59-17.24,57.51-18,88.81c-0.01,0.59-0.03,1.18-0.04,1.78c-2.89,126.73,114.13,291.41,286.91,396.17
		c79.13,47.98,163.78,84.05,272.42,119.63c111.29,36.45,247.75,72.4,364.36,86.17c58.22,6.87,111.48,8.21,164.7,8.11v-204.82
		c-11.15-0.25-22.25-1.5-33.12-4.12c-23.39-5.64-45.73-17.67-61.65-34.08c-10.06-10.37-18.15-22.22-24.48-35.65
		c-9.8-18.77-14.76-41.05-16.94-66.66c-6.34-15.2-14.7-31.71-27.46-52.17c-16.11-25.83-36.1-40.48-63.12-51.94
		c-7.7-3.26-14.69-5.57-19.54-7.21c-12.16-3.7-23.68-9.55-33.88-18.61c-16.77-14.88-27.37-35.88-28.38-56.19
		c-0.92-18.53,5.95-34.99,11.88-45.54c4.62-8.22,15.04-11.14,23.26-6.52c8.22,4.62,11.14,15.04,6.52,23.26
		c-5.27,9.36-7.94,18.99-7.54,27.1c0.55,11.17,7.04,23.56,16.94,32.34c19.69,17.48,51.35,16.86,79.72,13.94
		c45.68-4.68,84.15-15.9,117.6-34.3c15.42-8.48,30.48-18.91,44.9-30.89v-20.52c-14.48-6.26-28.45-13.84-42.33-21.89
		c-24.63-14.28-49.02-29.81-63.75-56.81c-9.47-17.36-14.96-39.47-7.97-55.88c5.99-14.07,21.15-23.96,36.3-29.8
		c20.89-8.05,41.77-8.4,62.87-9.31c10.03-0.43,20.12-1,30.19-0.93v-68.06c-134.84,0.78-258.32,57.78-354.62,148.47
		C4528.11,1558.46,4412.5,1482.74,4275.89,1455.51z M4411.39,1728.91c-9.32,78.24-66.88,120.42-82.63,131.56
		c-15.15,10.72-87.96,59.12-181.78,32.55c-67.83-19.21-126.32-71.86-147.7-140.19c-4.05-12.93-24.87-84.31,16.25-149.82
		c31.57-50.3,78.22-70.67,98.22-77.64c60.63-21.13,113.47-7.21,133-2.72c29.73,6.84,80.13,26.74,119.49,73.09
		C4413.72,1651.64,4413.62,1710.21,4411.39,1728.91z"/>
	<path class="st3" d="M4906.95,1572.27c-15.15,5.84-30.31,15.73-36.3,29.8c-6.99,16.42-1.51,38.52,7.97,55.88
		c14.74,27,39.13,42.53,63.75,56.81c13.87,8.05,27.85,15.63,42.33,21.89v20.52c-14.42,11.98-29.48,22.41-44.9,30.89
		c-33.45,18.39-71.92,29.61-117.6,34.3c-28.37,2.92-60.02,3.53-79.72-13.94c-9.89-8.78-16.38-21.17-16.94-32.34
		c-0.4-8.11,2.28-17.74,7.54-27.1c4.62-8.22,1.7-18.64-6.52-23.26c-8.22-4.63-18.64-1.71-23.26,6.52
		c-5.93,10.55-12.8,27.01-11.88,45.54c1.01,20.31,11.62,41.32,28.38,56.19c10.2,9.05,21.72,14.9,33.88,18.61
		c4.85,1.65,11.85,3.95,19.54,7.21c27.02,11.45,47.01,26.1,63.12,51.94c12.75,20.46,21.11,36.97,27.46,52.17
		c-0.68-8.04-1.11-16.38-1.31-25.08c-0.71-31.55,1.38-67.32,4.49-99.49c26.91-6.12,52.41-14.91,76.66-27.21
		c17.02-8.63,41.02-24.82,56.35-36.32v-213.78c-10.07-0.07-20.15,0.5-30.19,0.93C4948.72,1563.87,4927.84,1564.22,4906.95,1572.27z"
		/>
	<path class="st10" d="M4587.16,1141.09c-38.2,3.15-66.71,38.1-59.47,65.43c15.1,56.96,159.07,73.01,168.42,27.86
		C4703.09,1200.65,4646.66,1136.19,4587.16,1141.09z"/>
	<path class="st3" d="M4620.43,1401.24c-40.2-19.15-93.12-38.27-130.95-35.92c-17.06,1.06-31.05,6.48-42.15,20.28
		c-7.53,9.37-13.74,22.59-13.5,32.82c0.71,31.09,60.84,34.59,113.18,43.6c40.8,7.02,76.87,17.4,94.78-0.85
		c8.76-8.92,13.18-24.67,8.92-35.88C4646.58,1414.41,4634.26,1407.83,4620.43,1401.24z"/>
	<path class="st11" d="M4895.71,2052.28c-5.94-6.61-10.87-13.87-14.97-21.72c6.33,13.43,14.43,25.28,24.48,35.65
		c15.92,16.42,38.26,28.44,61.65,34.08c10.88,2.62,21.98,3.87,33.12,4.12v-9.99c-14.85-0.08-29.66-1.7-43.98-5.74
		C4932.86,2082.15,4910.99,2069.29,4895.71,2052.28z"/>
	<path class="st12" d="M4996.97,1940.24c-0.07,13.69,0.36,27.37,1.1,41.11c0.51,8.78,1.21,17.6,1.93,26.45v-128.21
		c-0.58,6.53-1.13,13.05-1.57,19.55C4997.57,1912.87,4997.01,1926.55,4996.97,1940.24z"/>
	<path class="st12" d="M4866.99,1839.33c-3.11,32.17-5.2,67.94-4.49,99.49c0.2,8.69,0.62,17.04,1.31,25.08
		c2.18,25.61,7.14,47.9,16.94,66.66c4.1,7.85,9.02,15.11,14.97,21.72c15.28,17.01,37.15,29.87,60.31,36.41
		c14.32,4.04,29.14,5.66,43.98,5.74v-75c-4.47-12.04-7.6-24.54-9.7-37.21c-2.35-13.86-3.41-27.95-3.35-42.02
		c0.08-14.07,1.27-28.15,3.75-41.99c2.09-11.96,5.12-23.75,9.3-35.14v-87.27v0c-15.33,11.5-39.33,27.69-56.35,36.32
		C4919.4,1824.42,4893.9,1833.21,4866.99,1839.33z"/>
	<path class="st11" d="M4986.96,1940.19c-0.06,14.07,1,28.16,3.35,42.02c2.09,12.68,5.23,25.18,9.7,37.21v-11.63
		c-0.72-8.85-1.42-17.67-1.93-26.45c-0.74-13.73-1.17-27.42-1.1-41.11c0.04-13.69,0.6-27.37,1.46-41.1
		c0.44-6.51,0.99-13.02,1.57-19.55v-16.52c-4.17,11.39-7.2,23.17-9.3,35.14C4988.22,1912.04,4987.04,1926.12,4986.96,1940.19z"/>
	<path class="st13" d="M4246.75,1522.64c-19.53-4.49-72.36-18.41-133,2.72c-20,6.97-66.65,27.34-98.22,77.64
		c-41.13,65.52-20.3,136.89-16.25,149.82c21.38,68.32,79.87,120.97,147.7,140.19c93.82,26.58,166.64-21.83,181.78-32.55
		c15.75-11.14,73.31-53.32,82.63-131.56c2.23-18.7,2.33-77.27-45.15-133.18C4326.88,1549.38,4276.48,1529.48,4246.75,1522.64z"/>
	<path class="st6" d="M3173.15,1937.3c61.64,66.82,114.08,157.41,157.81,250.06c62.25-95.29,83.78-132.73,106.94-182.67
		c45.6-98.3,97.7-245.23,66.56-286.06c-42.17-55.3-237.01,84.03-361.92,187.41C3153.09,1916.22,3163.33,1926.65,3173.15,1937.3z"/>
	<path class="st6" d="M1821.26,1937.3c10.63-11.52,21.72-22.78,33.18-33.75c-125.01-103.11-317.07-239.77-358.9-184.91
		c-31.14,40.83,20.96,187.76,66.56,286.06c22.77,49.07,43.92,86.04,103.71,177.72C1709.06,2091.49,1760.71,2002.93,1821.26,1937.3z"
		/>
	<path class="st14" d="M1664.38,2573.76c36.54-0.56,73.91,3.24,109.83,10.4c136.41,27.18,251.83,102.79,368.93,186.63
		c96.15-90.56,219.44-147.47,354.07-148.24c134.63,0.77,257.92,57.69,354.07,148.24c117.09-83.84,232.52-159.45,368.93-186.63
		c35.91-7.16,73.28-10.96,109.83-10.4c107.15,1.64,198.52,68.78,235.88,163.22c0.01,0.01,0.02,0.02,0.03,0.04
		c-11.41-36.84-53.31-97.31-81.11-157.32c-20.55-44.36-57.34-165.08-111.86-297.02c71.85-98.11,121.26-182.26,166.66-295.19
		c55.8-138.81,105.57-321.12,42.73-389.84c-95.36-104.31-450.05,52.99-643.11,163.37c-106.76-53.95-212.13-76.12-315.58-85.93
		c-42.35-4.02-84.39-5.96-126.46-5.66c-42.07-0.3-84.11,1.64-126.46,5.66c-102.5,9.72-206.88,31.53-312.65,84.41
		c-193.65-110.3-545.53-265.68-640.45-161.85c-62.83,68.73-13.07,251.04,42.73,389.84c44.64,111.04,93.19,194.27,163.1,290.29
		c-55.64,133.84-93.09,257.01-113.9,301.92c-27.8,60.01-69.7,120.48-81.11,157.32c0.01-0.01,0.02-0.02,0.03-0.04
		C1465.87,2642.54,1557.24,2575.4,1664.38,2573.76z M3504.46,1718.63c31.14,40.83-20.96,187.76-66.56,286.06
		c-23.17,49.94-44.69,87.38-106.94,182.67c-43.73-92.64-96.16-183.23-157.81-250.06c-9.83-10.65-20.07-21.07-30.61-31.26
		C3267.46,1802.66,3462.29,1663.33,3504.46,1718.63z M2922.29,2319.43c9.8-32.97,89.9-63,139.9-30.57
		c32.11,20.82,40.68,65.04,21.39,85.65C3043.38,2417.47,2909.17,2363.56,2922.29,2319.43z M2827.85,2536.1
		c6.39-7.72,17.68-9.66,30.1-11.18c36.14-4.42,81.88-5.27,109.78,7.17c12.58,5.61,21.53,13.92,25.78,28.26
		c2.89,9.73,3.61,22.23,0.36,30.51c-9.87,25.14-56.37,11.26-98.65,4.04c-32.95-5.63-63.33-7.21-71.4-27.07
		C2819.89,2558.12,2821.27,2544.05,2827.85,2536.1z M2141.92,2519.02c13.16,0.63,25.16,1.79,32.46,9.39
		c7.52,7.83,10.07,22.48,6.69,32.98c-6.92,21.46-38.68,25.49-72.81,33.96c-43.8,10.87-91.52,29.06-103.83,3.44
		c-4.05-8.43-4.27-21.61-2-32.04c3.35-15.38,12.09-24.8,24.85-31.66C2055.59,2519.86,2103.66,2517.19,2141.92,2519.02z
		 M1959.41,2260.73c47.5-36,129.58-11.9,141.76,20.27c16.31,43.05-113.61,106.63-156.84,66.72
		C1923.6,2328.56,1928.91,2283.84,1959.41,2260.73z M1562.09,2004.69c-45.6-98.3-97.7-245.23-66.56-286.06
		c41.83-54.85,233.89,81.81,358.9,184.91c-11.46,10.97-22.55,22.23-33.18,33.75c-60.55,65.63-112.2,154.19-155.45,245.11
		C1606.01,2090.73,1584.86,2053.76,1562.09,2004.69z"/>
	<path class="st6" d="M3583.92,2827.42c-0.01-0.59-0.03-1.18-0.04-1.78c-0.75-31.25-7.07-61.12-17.97-88.67
		c-37.36-94.44-128.73-161.58-235.88-163.22c-36.54-0.56-73.91,3.24-109.83,10.4c-136.4,27.18-251.83,102.79-368.93,186.63
		c-96.15-90.56-219.44-147.47-354.07-148.24c-134.63,0.77-257.92,57.69-354.07,148.24c-117.09-83.84-232.52-159.45-368.93-186.63
		c-35.91-7.16-73.28-10.96-109.83-10.4c-107.15,1.64-198.52,68.78-235.88,163.22c-10.9,27.55-17.22,57.42-17.97,88.67
		c-0.01,0.59-0.03,1.18-0.04,1.78c-2.89,126.54,113.96,290.96,286.46,395.56c79.01,47.91,163.53,83.92,272,119.45
		c111.12,36.4,247.37,72.29,363.8,86.03c58.13,6.86,111.31,8.19,164.45,8.1c53.14,0.1,106.32-1.23,164.45-8.1
		c116.43-13.74,252.69-49.64,363.8-86.03c108.47-35.53,192.99-71.54,272-119.45C3469.96,3118.38,3586.81,2953.96,3583.92,2827.42z
		 M1924.94,2922.42c-11,40.56-39.26,72.81-70.16,91.6c-51.02,31.02-107.63,28.94-163.22,13.54c-52.92-14.66-99.88-37.96-135.3-84.96
		c-23.56-31.26-35.68-72.9-32.11-116.83c3.59-44.1,24.21-85.54,55.15-110.45c26.41-21.26,56.59-33.37,86.65-34.75
		c26.63-1.22,53.88-0.41,79.28,5.01c31.18,6.66,61.06,16.14,91.01,32.39c30.37,16.48,59.14,42.45,77.83,76.97
		C1934.07,2831.89,1936.57,2879.55,1924.94,2922.42z M2736.86,2937.18c-18.32,18.7-39.08,33.1-61.68,42.81
		c-9.63,4.13-33.91,14.57-66.75,14.57c-11.25,0-23.5-1.22-36.5-4.34c-32.07-7.69-56.9-24.04-74.71-40.04
		c-17.81,16-42.64,32.35-74.71,40.04c-13.01,3.12-25.26,4.34-36.5,4.34c-32.84,0-57.12-10.43-66.75-14.57
		c-22.61-9.71-43.36-24.11-61.68-42.81c-8-8.17-7.87-21.28,0.3-29.28c8.16-8,21.28-7.88,29.28,0.3
		c14.52,14.82,30.82,26.17,48.45,33.74c9.81,4.21,39.64,17.03,77.25,8.01c28.49-6.83,49.71-23.05,63.66-37.26v-50.22
		c-12.53-5.76-24.72-12.43-36.84-19.45c-24.59-14.26-48.94-29.76-63.65-56.73c-9.46-17.34-14.94-39.41-7.96-55.8
		c5.98-14.05,21.12-23.93,36.25-29.76c20.86-8.04,41.71-8.39,62.77-9.3c10.02-0.43,20.09-1,30.14-0.93
		c10.05-0.07,20.12,0.5,30.14,0.93c21.06,0.91,41.91,1.26,62.77,9.3c15.13,5.83,30.26,15.71,36.25,29.76
		c6.98,16.39,1.5,38.46-7.96,55.8c-14.71,26.96-39.06,42.47-63.65,56.73c-12.11,7.03-24.31,13.7-36.84,19.45v50.21
		c13.95,14.21,35.18,30.43,63.66,37.26c37.62,9.01,67.45-3.79,77.25-8c17.62-7.57,33.93-18.92,48.45-33.74
		c8-8.17,21.12-8.3,29.28-0.3C2744.73,2915.9,2744.86,2929.01,2736.86,2937.18z M3443.84,2942.6c-35.42,47-82.38,70.3-135.3,84.96
		c-55.59,15.4-112.2,17.48-163.22-13.54c-30.9-18.79-59.17-51.05-70.16-91.6c-11.62-42.87-9.13-90.53,10.88-127.47
		c18.7-34.53,47.46-60.49,77.83-76.97c29.95-16.25,59.83-25.74,91.01-32.39c25.4-5.42,52.65-6.22,79.28-5.01
		c30.06,1.37,60.24,13.48,86.65,34.75c30.94,24.91,51.56,66.36,55.15,110.45C3479.52,2869.69,3467.4,2911.33,3443.84,2942.6z"/>
	<path class="st6" d="M2101.18,2280.99c-12.18-32.16-94.26-56.26-141.76-20.27c-30.5,23.11-35.81,67.84-15.08,86.98
		C1987.57,2387.62,2117.49,2324.04,2101.18,2280.99z"/>
	<path class="st6" d="M3083.58,2374.51c19.28-20.61,10.72-64.83-21.39-85.65c-50.01-32.43-130.1-2.4-139.9,30.57
		C2909.17,2363.56,3043.38,2417.47,3083.58,2374.51z"/>
	<path class="st4" d="M1836.24,2717.97c-29.95-16.25-59.83-25.74-91.01-32.39c-25.4-5.42-52.65-6.22-79.28-5.01
		c-30.06,1.37-60.24,13.48-86.65,34.75c-30.94,24.91-51.56,66.36-55.15,110.45c-3.57,43.92,8.55,85.56,32.11,116.83
		c35.42,47,82.38,70.3,135.3,84.96c55.59,15.4,112.2,17.48,163.22-13.54c30.9-18.79,59.17-51.05,70.16-91.6
		c11.62-42.87,9.13-90.53-10.88-127.47C1895.37,2760.42,1866.61,2734.45,1836.24,2717.97z"/>
	<path class="st4" d="M3420.8,2715.32c-26.41-21.26-56.59-33.37-86.65-34.75c-26.63-1.22-53.88-0.41-79.28,5.01
		c-31.18,6.66-61.06,16.14-91.01,32.39c-30.37,16.48-59.13,42.45-77.83,76.97c-20,36.94-22.5,84.6-10.88,127.47
		c11,40.56,39.26,72.81,70.16,91.6c51.02,31.02,107.63,28.94,163.22,13.54c52.92-14.66,99.88-37.96,135.3-84.96
		c23.56-31.26,35.68-72.9,32.11-116.83C3472.36,2781.67,3451.74,2740.23,3420.8,2715.32z"/>
	<path class="st3" d="M2707.28,2908.19c-14.53,14.82-30.83,26.17-48.45,33.74c-9.8,4.21-39.63,17.02-77.25,8
		c-28.49-6.83-49.71-23.05-63.66-37.26v-50.21c12.53-5.76,24.72-12.43,36.84-19.45c24.59-14.26,48.94-29.76,63.65-56.73
		c9.46-17.34,14.94-39.41,7.96-55.8c-5.98-14.05-21.12-23.93-36.25-29.76c-20.86-8.04-41.71-8.39-62.77-9.3
		c-10.02-0.43-20.09-1-30.14-0.93c-10.05-0.07-20.12,0.5-30.14,0.93c-21.06,0.91-41.91,1.26-62.77,9.3
		c-15.13,5.83-30.26,15.71-36.25,29.76c-6.98,16.39-1.5,38.46,7.96,55.8c14.71,26.96,39.06,42.47,63.65,56.73
		c12.11,7.03,24.3,13.7,36.84,19.45v50.22c-13.95,14.21-35.18,30.43-63.66,37.26c-37.61,9.02-67.45-3.79-77.25-8.01
		c-17.62-7.57-33.93-18.92-48.45-33.74c-8.01-8.17-21.12-8.3-29.28-0.3c-8.17,8.01-8.3,21.12-0.3,29.28
		c18.32,18.7,39.07,33.1,61.68,42.81c9.63,4.14,33.91,14.57,66.75,14.57c11.25,0,23.5-1.23,36.5-4.34
		c32.07-7.69,56.9-24.04,74.71-40.04c17.81,16,42.64,32.35,74.71,40.04c13.01,3.12,25.26,4.34,36.5,4.34
		c32.84,0,57.12-10.43,66.75-14.57c22.61-9.71,43.36-24.11,61.68-42.81c8.01-8.17,7.87-21.28-0.29-29.28
		C2728.39,2899.89,2715.28,2900.02,2707.28,2908.19z"/>
	<path class="st3" d="M2002.43,2566.75c-2.27,10.43-2.05,23.61,2,32.04c12.31,25.61,60.03,7.43,103.83-3.44
		c34.14-8.47,65.89-12.5,72.81-33.96c3.38-10.49,0.83-25.15-6.69-32.98c-7.31-7.6-19.3-8.76-32.46-9.39
		c-38.26-1.82-86.33,0.84-114.64,16.07C2014.52,2541.95,2005.78,2551.37,2002.43,2566.75z"/>
	<path class="st3" d="M2895.23,2594.89c42.28,7.22,88.78,21.1,98.65-4.04c3.25-8.28,2.53-20.78-0.36-30.51
		c-4.25-14.34-13.2-22.65-25.78-28.26c-27.9-12.44-73.64-11.59-109.78-7.17c-12.43,1.52-23.71,3.46-30.1,11.18
		c-6.58,7.95-7.97,22.02-4.02,31.72C2831.9,2587.68,2862.28,2589.27,2895.23,2594.89z"/>
	<path class="st15" d="M679.27,3229.14c62.2,67.43,115.11,158.84,159.24,252.33c62.82-96.15,84.54-133.93,107.91-184.32
		c46.02-99.2,98.58-247.46,67.16-288.66c-42.55-55.8-239.16,84.79-365.2,189.11C659.02,3207.88,669.35,3218.4,679.27,3229.14z"/>
	<path class="st16" d="M726.74,3881.87c36.24-7.22,73.95-11.06,110.82-10.49c108.12,1.66,200.32,69.41,238.02,164.7
		c0.01,0.01,0.02,0.03,0.03,0.04c-11.51-37.18-53.8-98.2-81.85-158.75c-20.74-44.77-57.86-166.57-112.88-299.72
		c72.5-99,122.36-183.91,168.17-297.86c56.31-140.07,106.53-324.03,43.12-393.38c-96.23-105.25-454.13,53.47-648.95,164.85
		c-107.73-54.44-214.06-76.81-318.44-86.71c-41.79-3.96-83.28-5.89-124.79-5.69v961.8c134.75,1.56,258.12,58.79,354.47,149.54
		C472.62,3985.59,589.1,3909.3,726.74,3881.87z M420.04,3902.6c-32.18,0-58.27-26.09-58.27-58.27s26.09-58.27,58.27-58.27
		c32.18,0,58.27,26.09,58.27,58.27S452.22,3902.6,420.04,3902.6z M1013.58,3008.49c31.42,41.2-21.15,189.46-67.16,288.66
		c-23.38,50.39-45.1,88.17-107.91,184.32c-44.13-93.49-97.04-184.9-159.24-252.33c-9.92-10.75-20.25-21.27-30.89-31.54
		C774.43,3093.29,971.03,2952.69,1013.58,3008.49z M309.09,3659.07c-7.03-33.99,49.82-98.93,109.76-93.99
		c38.49,3.17,67.22,38.39,59.92,65.92C463.56,3688.39,318.51,3704.56,309.09,3659.07z"/>
	<path class="st15" d="M530.22,4647.03c109.46-35.85,194.74-72.19,274.47-120.53c174.07-105.55,291.98-271.46,289.06-399.15
		c-0.01-0.6-0.03-1.2-0.04-1.79c-0.76-31.54-7.14-61.67-18.13-89.48c-37.7-95.3-129.9-163.05-238.02-164.7
		c-36.88-0.57-74.58,3.27-110.82,10.49c-137.64,27.43-254.12,103.72-372.27,188.32C258.12,3979.45,134.75,3922.21,0,3920.66v68.58
		c9.2,0.04,18.42,0.49,27.59,0.89c21.25,0.92,42.29,1.27,63.34,9.38c15.27,5.88,30.54,15.85,36.58,30.03
		c7.04,16.54,1.52,38.81-8.03,56.3c-14.85,27.21-39.42,42.85-64.23,57.24c-12.22,7.09-24.53,13.82-37.17,19.63v50.68
		c14.08,14.34,35.51,30.7,64.24,37.59c37.95,9.1,68.06-3.83,77.95-8.08c17.79-7.64,34.24-19.1,48.89-34.05
		c8.08-8.24,21.31-8.38,29.55-0.3c8.24,8.08,8.38,21.31,0.3,29.55c-18.49,18.87-39.43,33.4-62.25,43.2
		c-9.72,4.17-34.22,14.7-67.35,14.7c-11.35,0-23.71-1.24-36.84-4.38c-30.72-7.37-54.83-22.61-72.57-37.95v488.34
		c52.68,0.05,105.49-1.36,163.12-8.16C280.61,4719.98,418.1,4683.76,530.22,4647.03z M644.42,4034.33
		c39.47-46.48,90-66.44,119.81-73.3c19.58-4.51,72.56-18.46,133.36,2.72c20.06,6.99,66.83,27.41,98.5,77.85
		c41.25,65.7,20.37,137.27,16.31,150.24c-21.43,68.51-80.08,121.31-148.1,140.58c-94.08,26.66-167.1-21.88-182.29-32.62
		c-15.79-11.17-73.51-53.47-82.86-131.92C596.92,4149.13,596.82,4090.4,644.42,4034.33z"/>
	<path class="st15" d="M478.78,3631c7.3-27.53-21.43-62.74-59.92-65.92c-59.94-4.94-116.8,60-109.76,93.99
		C318.51,3704.56,463.56,3688.39,478.78,3631z"/>
	<circle class="st3" cx="420.04" cy="3844.33" r="58.27"/>
	<path class="st3" d="M109.41,4296c33.13,0,57.64-10.53,67.35-14.7c22.81-9.8,43.76-24.33,62.25-43.2
		c8.08-8.24,7.94-21.47-0.3-29.55c-8.24-8.08-21.47-7.94-29.55,0.3c-14.65,14.95-31.1,26.41-48.89,34.05
		c-9.89,4.25-40,17.18-77.95,8.08c-28.73-6.89-50.16-23.25-64.24-37.59v-50.68c12.65-5.81,24.95-12.54,37.17-19.63
		c24.81-14.39,49.38-30.03,64.23-57.24c9.54-17.49,15.07-39.76,8.03-56.3c-6.04-14.18-21.31-24.14-36.58-30.03
		c-21.05-8.11-42.08-8.46-63.34-9.38c-9.17-0.4-18.39-0.85-27.59-0.89v264.43c17.75,15.34,41.85,30.58,72.57,37.95
		C85.7,4294.76,98.06,4296,109.41,4296z"/>
	<path class="st17" d="M682.02,4299.8c15.19,10.75,88.21,59.28,182.29,32.62c68.01-19.27,126.67-72.07,148.1-140.58
		c4.06-12.97,24.94-84.54-16.31-150.24c-31.67-50.44-78.44-70.86-98.5-77.85c-60.8-21.18-113.78-7.23-133.36-2.72
		c-29.81,6.86-80.34,26.82-119.81,73.3c-47.6,56.06-47.5,114.8-45.26,133.55C608.5,4246.33,666.23,4288.63,682.02,4299.8z"/>
	<path class="st15" d="M3986.42,3008.49c-31.42,41.2,21.15,189.46,67.16,288.66c22.97,49.52,44.31,86.82,104.65,179.33
		c43.65-91.74,95.77-181.11,156.86-247.34c10.72-11.62,21.92-22.99,33.48-34.06C4222.43,3091.04,4028.63,2953.14,3986.42,3008.49z"
		/>
	<path class="st16" d="M4869.57,2964.55c-103.43,9.81-208.76,31.82-315.48,85.18c-195.4-111.3-550.48-268.09-646.26-163.32
		c-63.4,69.35-13.19,253.31,43.12,393.38c45.04,112.05,94.03,196.03,164.58,292.92c-56.15,135.06-93.94,259.34-114.93,304.66
		c-28.05,60.55-70.33,121.57-81.85,158.75c0.01-0.01,0.02-0.03,0.03-0.04c37.7-95.3,129.9-163.05,238.02-164.7
		c36.88-0.57,74.58,3.27,110.82,10.49c137.64,27.43,254.12,103.72,372.27,188.32c97.02-91.38,221.43-148.81,357.29-149.59
		c0.94,0,1.88,0.04,2.82,0.05v-961.8c-0.94,0-1.88-0.02-2.82-0.02C4954.73,2958.54,4912.31,2960.5,4869.57,2964.55z M4315.1,3229.14
		c-61.1,66.23-113.21,155.59-156.86,247.34c-60.34-92.51-81.68-129.81-104.65-179.33c-46.02-99.2-98.58-247.46-67.16-288.66
		c42.21-55.35,236.01,82.55,362.16,186.59C4337.01,3206.15,4325.82,3217.52,4315.1,3229.14z M4574.32,3902.6
		c-32.18,0-58.27-26.09-58.27-58.27s26.09-58.27,58.27-58.27c32.18,0,58.27,26.09,58.27,58.27S4606.5,3902.6,4574.32,3902.6z
		 M4691,3659.07c-9.41,45.49-154.47,29.32-169.68-28.07c-7.3-27.53,21.43-62.74,59.92-65.92
		C4641.18,3560.14,4698.04,3625.08,4691,3659.07z"/>
	<path class="st15" d="M4639.9,4070.19c-118.16-84.6-234.63-160.9-372.27-188.32c-36.24-7.22-73.95-11.06-110.82-10.49
		c-108.12,1.66-200.32,69.41-238.02,164.7c-11,27.8-17.37,57.94-18.13,89.48c-0.01,0.6-0.03,1.19-0.04,1.79
		c-2.92,127.68,114.99,293.6,289.06,399.15c79.73,48.34,165.01,84.68,274.47,120.53c112.12,36.73,249.61,72.94,367.1,86.81
		c58.65,6.92,112.32,8.27,165.94,8.17c0.94,0,1.88-0.01,2.82-0.01v-488.34c-0.95-0.82-1.91-1.64-2.82-2.45
		c-17.97,16.15-43.03,32.65-75.4,40.41c-13.12,3.15-25.49,4.38-36.83,4.38c-33.14,0-57.64-10.53-67.36-14.7
		c-22.81-9.79-43.75-24.33-62.24-43.19c-8.08-8.24-7.95-21.47,0.3-29.55c8.24-8.08,21.47-7.95,29.55,0.29
		c14.66,14.96,31.11,26.41,48.89,34.05c9.89,4.25,39.99,17.18,77.95,8.08c28.73-6.89,50.16-23.25,64.24-37.59v-50.68
		c-12.65-5.81-24.95-12.54-37.17-19.63c-24.81-14.39-49.38-30.03-64.23-57.24c-9.55-17.49-15.07-39.76-8.03-56.3
		c6.04-14.18,21.31-24.14,36.57-30.03c21.05-8.11,42.08-8.46,63.34-9.38c10.11-0.44,20.27-1,30.41-0.94
		c0.94-0.01,1.88,0.05,2.82,0.05v-68.58c-0.94-0.01-1.88-0.05-2.82-0.05C4861.32,3921.39,4736.92,3978.82,4639.9,4070.19z
		 M4400.21,4167.88c-9.35,78.45-67.07,120.74-82.87,131.92c-15.19,10.75-88.21,59.28-182.29,32.62
		c-68.01-19.27-126.66-72.07-148.1-140.58c-4.06-12.97-24.94-84.54,16.31-150.24c31.66-50.44,78.44-70.86,98.5-77.85
		c60.8-21.18,113.78-7.23,133.36-2.72c29.81,6.86,80.35,26.82,119.81,73.3C4402.55,4090.4,4402.44,4149.13,4400.21,4167.88z"/>
	<path class="st3" d="M4966.77,3990.12c-21.26,0.92-42.29,1.27-63.34,9.38c-15.27,5.88-30.54,15.85-36.57,30.03
		c-7.04,16.54-1.52,38.81,8.03,56.3c14.85,27.21,39.42,42.85,64.23,57.24c12.22,7.09,24.53,13.82,37.17,19.63v50.68
		c-14.08,14.34-35.51,30.7-64.24,37.59c-37.95,9.1-68.06-3.83-77.95-8.08c-17.78-7.64-34.23-19.09-48.89-34.05
		c-8.08-8.24-21.31-8.37-29.55-0.29c-8.24,8.08-8.37,21.31-0.3,29.55c18.49,18.86,39.43,33.4,62.24,43.19
		c9.72,4.18,34.22,14.7,67.36,14.7c11.35,0,23.71-1.24,36.83-4.38c32.36-7.76,57.42-24.26,75.4-40.41c0.91,0.82,1.87,1.64,2.82,2.45
		v-264.43c-0.94,0-1.88-0.06-2.82-0.05C4987.04,3989.12,4976.88,3989.68,4966.77,3990.12z"/>
	<path class="st15" d="M4581.24,3565.08c-38.49,3.17-67.22,38.39-59.92,65.92c15.21,57.39,160.27,73.56,169.68,28.07
		C4698.04,3625.08,4641.18,3560.14,4581.24,3565.08z"/>
	
		<ellipse transform="matrix(0.9239 -0.3827 0.3827 0.9239 -1122.9618 2043.1451)" class="st3" cx="4574.32" cy="3844.33" rx="58.27" ry="58.27"/>
	<path class="st17" d="M4235.13,3961.03c-19.58-4.51-72.56-18.46-133.36,2.72c-20.06,6.99-66.83,27.41-98.5,77.85
		c-41.25,65.7-20.37,137.27-16.31,150.24c21.43,68.51,80.08,121.31,148.1,140.58c94.08,26.66,167.1-21.88,182.29-32.62
		c15.79-11.17,73.52-53.47,82.87-131.92c2.23-18.75,2.34-77.49-45.27-133.55C4315.48,3987.85,4264.94,3967.89,4235.13,3961.03z"/>
	<path class="st6" d="M1914.66,1413.97c-19.59,42.11,11.88,90.14,58.31,89c46.43-1.14,75.5-50.66,53.87-91.76
		c76.68-40.36,158.68-83.52,235.37-123.87c21.63,41.1,78.91,45.17,106.14,7.55c27.23-37.63,5.45-90.76-40.35-98.46
		c19.59-42.11-11.88-90.14-58.31-89c-46.43,1.14-75.5,50.66-53.87,91.76c-76.68,40.36-158.68,83.52-235.37,123.87
		c-21.63-41.1-78.91-45.17-106.14-7.55C1847.08,1353.14,1868.86,1406.28,1914.66,1413.97z"/>
	<path class="st6" d="M4678.8,37.69c-82.26,27.23-170.23,56.35-252.5,83.59c-14.6-44.09-70.43-57.5-103.46-24.85
		c-33.03,32.65-20.27,88.64,23.65,103.74c-26.23,38.33-3.07,90.87,42.92,97.36c45.99,6.49,82.79-37.59,68.19-81.68
		c82.27-27.23,170.23-56.35,252.5-83.59c14.59,44.09,70.43,57.5,103.46,24.85c33.03-32.65,20.27-88.64-23.65-103.74
		c11.46-16.75,13.49-36.22,8.3-53.37h-119.98C4674.69,11.7,4674.5,24.69,4678.8,37.69z"/>
	<path class="st6" d="M3781.16,1141.01c-18.86-84.58-39.03-175.02-57.9-259.6c45.33-10.11,64.26-64.32,35.08-100.45
		c-29.18-36.13-86.16-29.04-105.59,13.15c-35.51-29.93-90.11-12.15-101.17,32.96c-11.06,45.11,29.11,86.14,74.44,76.03
		c18.86,84.58,39.03,175.02,57.9,259.6c-45.33,10.11-64.26,64.32-35.08,100.45c29.18,36.13,86.16,29.04,105.59-13.15
		c35.51,29.93,90.11,12.15,101.17-32.96C3866.66,1171.93,3826.49,1130.9,3781.16,1141.01z"/>
	<path class="st6" d="M3071.72,3634.98c18.45-42.62-14.3-89.79-60.68-87.4s-74.11,52.67-51.39,93.17
		c-75.57,42.41-156.38,87.75-231.95,130.15c-22.73-40.5-80.09-43.04-106.3-4.69c-26.21,38.34-3.01,90.87,42.98,97.34
		c-18.45,42.62,14.3,89.79,60.68,87.4c46.38-2.39,74.11-52.67,51.39-93.17c75.57-42.4,156.38-87.75,231.95-130.15
		c22.73,40.5,80.09,43.04,106.3,4.69C3140.91,3693.97,3117.71,3641.45,3071.72,3634.98z"/>
	<path class="st6" d="M1451.38,3689.94c-15.33-85.29-31.72-176.49-47.06-261.78c45.71-8.22,66.88-61.59,39.23-98.91
		c-27.65-37.31-84.88-32.59-106.04,8.75c-34.24-31.39-89.53-15.88-102.45,28.73c-12.93,44.61,25.51,87.27,71.22,79.05
		c15.33,85.29,31.72,176.49,47.06,261.78c-45.71,8.22-66.88,61.59-39.23,98.91c27.65,37.31,84.88,32.59,106.04-8.75
		c34.24,31.38,89.53,15.88,102.45-28.73C1535.53,3724.38,1497.09,3681.72,1451.38,3689.94z"/>
	<path class="st6" d="M645.61,2551.42c30.45-35.07,13.45-89.92-31.49-101.64c-44.94-11.71-86.55,27.86-77.1,73.33
		c-84.84,17.64-175.57,36.49-260.41,54.13c-9.45-45.47-63.38-65.19-99.93-36.53c-36.55,28.65-30.28,85.73,11.62,105.77
		c-30.45,35.07-13.45,89.92,31.49,101.64c44.94,11.71,86.55-27.86,77.1-73.33c84.84-17.64,175.57-36.49,260.41-54.13
		c9.45,45.47,63.38,65.19,99.93,36.54C693.78,2628.54,687.51,2571.46,645.61,2551.42z"/>
	<path class="st6" d="M1133.44,178.48c46.35-2.96,73.46-53.58,50.23-93.8c38.2-9.95,56.08-51.03,41.95-84.68H852.06
		c72.37,30.26,148.19,61.97,219.62,91.84C1053.76,134.69,1087.09,181.45,1133.44,178.48z"/>
	<path class="st6" d="M820.38,0H716.6c1.42,2.09,2.93,4.14,4.64,6.11C748.91,37.99,798.16,33.27,820.38,0z"/>
	<path class="st6" d="M4018.69,4882.28c-0.02-0.05-0.02-0.11-0.04-0.16c-11.47-38.18-51.73-59.84-89.91-48.36
		c-27.99,8.41-47.03,32.3-50.72,59.48c-18.06-20.65-47.12-30.09-75.1-21.68c-38.19,11.47-59.84,51.73-48.36,89.91
		c0.02,0.06,0.04,0.1,0.06,0.16c4,13.69,12.11,26.82,21.83,38.37h217.08c4.16-6.29,8.17-12.88,11.92-19.82
		C4017.68,4957.49,4028.72,4914.78,4018.69,4882.28z"/>
	<path class="st6" d="M4746.99,4956.01c-32.43-4.58-60.26,16-68.75,43.99h119.98C4791.54,4977.91,4772.88,4959.66,4746.99,4956.01z"
		/>
	<path class="st6" d="M1110.11,4999.93c-79.95-33.43-165.44-69.18-245.38-102.61c17.92-42.85-15.41-89.61-61.76-86.64
		c-46.35,2.96-73.46,53.58-50.23,93.8c-42.42,11.05-59.89,60.51-36.14,95.52h103.78c2.23-3.34,4.28-6.87,5.92-10.78
		c8.52,3.56,17.13,7.16,25.77,10.78h373.55c-2.5-5.95-5.87-11.69-10.45-16.95C1184.72,4947.97,1128.03,4957.08,1110.11,4999.93z"/>
	<path class="st6" d="M3967.78,2456.01c80.64,31.71,166.88,65.63,247.52,97.34c-17,43.22,17.32,89.26,63.6,85.3
		c46.28-3.95,72.29-55.14,48.21-94.86c44.68-12.67,60.51-67.87,29.32-102.28c-31.19-34.42-87.67-24.09-104.67,19.13
		c-80.64-31.71-166.88-65.63-247.52-97.34c17-43.22-17.32-89.26-63.6-85.3c-46.28,3.95-72.29,55.14-48.21,94.85
		c-44.68,12.67-60.51,67.87-29.32,102.28C3894.29,2509.56,3950.78,2499.23,3967.78,2456.01z"/>
</g>
</svg>
