<?xml version="1.0" encoding="iso-8859-1"?>
<!-- Generator: Adobe Illustrator 19.0.0, SVG Export Plug-In . SVG Version: 6.00 Build 0)  -->
<svg version="1.1" id="Capa_1" xmlns="http://www.w3.org/2000/svg" xmlns:xlink="http://www.w3.org/1999/xlink" x="0px" y="0px"
	 viewBox="0 0 512 512" style="enable-background:new 0 0 512 512;" xml:space="preserve">
<path style="fill:#A8A7A6;" d="M416.216,47.966C373.363,17.035,316.642,0,256.5,0S139.636,17.035,96.784,47.966
	C52.444,79.972,28.025,123,28.025,169.125c0,46.123,24.419,89.151,68.759,121.158c42.852,30.932,99.574,47.966,159.716,47.966
	s116.864-17.035,159.716-47.966c44.34-32.005,68.759-75.033,68.759-121.158C484.975,123,460.557,79.972,416.216,47.966z"/>
<path style="fill:#D1D1D1;" d="M256.5,0C196.358,0,139.636,17.035,96.784,47.966C52.444,79.972,28.025,123,28.025,169.125
	c0,46.123,24.419,89.151,68.759,121.158c42.852,30.932,99.574,47.966,159.716,47.966V0z"/>
<path style="fill:#AD604C;" d="M444.593,262.188l-83.156-53.691c-63.793-41.344-146.171-41.385-209.861-0.109l-83.178,53.807
	c-5.586,3.613-8.132,10.612-6.253,17.004c1.879,6.393,7.733,10.91,14.382,10.91h359.949c6.651,0,12.507-4.521,14.384-10.916
	C452.735,272.796,450.185,265.798,444.593,262.188z"/>
<path style="fill:#E07F53;" d="M256.5,177.46c-36.541-0.025-73.071,10.284-104.926,30.929l-83.177,53.806
	c-5.586,3.613-8.132,10.612-6.253,17.004c1.879,6.393,7.733,10.91,14.382,10.91H256.5V177.46z"/>
<path style="fill:#D1D1D1;" d="M494.383,292.857c0-24.901-20.137-44.728-44.978-44.728H62.595
	c-24.841,0-44.978,19.827-44.978,44.728v174.335c0,24.901,20.137,44.808,44.978,44.808h386.81c24.841,0,44.978-19.907,44.978-44.808
	V292.857z"/>
<path style="fill:#F4F4F4;" d="M256.5,248.129H62.595c-24.841,0-44.978,19.827-44.978,44.728v174.335
	c0,24.901,20.137,44.808,44.978,44.808H256.5V248.129z"/>
<rect x="17.617" y="352.077" style="fill:#424242;" width="476.766" height="56.972"/>
<rect x="17.617" y="352.077" style="fill:#666666;" width="238.883" height="56.972"/>
<path style="fill:#FFA05A;" d="M326.666,309.069c-5.814-3.174-13.007-3.397-18.589,0.167l-46.117,28.916h-10.919l-46.012-28.916
	c-5.582-3.564-12.879-3.573-18.694-0.4c-5.815,3.174-9.64,9.493-9.64,16.106v71.447c0,43.684,36.031,79.222,79.805,79.222
	s79.805-35.539,79.805-79.222v-71.448C336.306,318.329,332.482,312.243,326.666,309.069z"/>
<path style="fill:#FFC166;" d="M256.5,338.151h-5.458l-46.012-28.916c-5.582-3.564-12.879-3.573-18.694-0.4
	c-5.815,3.174-9.64,9.493-9.64,16.106v71.447c0,43.684,36.031,79.222,79.805,79.222V338.151z"/>
<g>
</g>
<g>
</g>
<g>
</g>
<g>
</g>
<g>
</g>
<g>
</g>
<g>
</g>
<g>
</g>
<g>
</g>
<g>
</g>
<g>
</g>
<g>
</g>
<g>
</g>
<g>
</g>
<g>
</g>
</svg>
