<svg height="512pt" viewBox="0 -38 512.00028 512" width="512pt" xmlns="http://www.w3.org/2000/svg"><path d="m479.84375 271.21875h-9.617188c-2.351562 0-4.410156-1.542969-5.121093-3.785156-1.261719-3.996094-2.867188-7.839844-4.777344-11.503906-1.089844-2.089844-.730469-4.640626.9375-6.308594l6.8125-6.808594c4.050781-4.050781 4.050781-10.621094 0-14.675781l-10.671875-10.667969c-4.054688-4.054688-10.621094-4.054688-14.675781 0l-6.808594 6.808594c-1.667969 1.667968-4.21875 2.027344-6.308594.9375-3.660156-1.910156-7.503906-3.515625-11.5-4.777344-2.246093-.710938-3.785156-2.765625-3.785156-5.121094v-9.613281c0-5.730469-4.648437-10.378906-10.378906-10.378906h-15.089844c-5.730469 0-10.378906 4.648437-10.378906 10.378906v9.617187c0 2.351563-1.542969 4.40625-3.785157 5.117188-3.996093 1.265625-7.839843 2.871094-11.5 4.777344-2.089843 1.089844-4.640624.730468-6.308593-.9375l-6.808594-6.808594c-4.054687-4.054688-10.625-4.054688-14.675781 0l-10.671875 10.671875c-4.050781 4.050781-4.050781 10.621094 0 14.671875l6.8125 6.8125c1.667969 1.667969 2.027343 4.214844.9375 6.308594-1.910157 3.660156-3.515625 7.503906-4.777344 11.5-.710937 2.242187-2.769531 3.785156-5.121094 3.785156h-9.617187c-5.730469 0-10.375 4.644531-10.375 10.378906v15.089844c0 5.730469 4.644531 10.375 10.375 10.375h9.617187c2.355469 0 4.410157 1.542969 5.121094 3.789062 1.261719 3.996094 2.867187 7.839844 4.777344 11.5 1.089843 2.089844.730469 4.636719-.9375 6.304688l-6.8125 6.8125c-4.050781 4.050781-4.050781 10.621094 0 14.675781l10.671875 10.667969c4.050781 4.054688 10.621094 4.054688 14.675781 0l6.808594-6.808594c1.667969-1.667968 4.21875-2.027344 6.308593-.9375 3.660157 1.910156 7.503907 3.511719 11.5 4.777344 2.242188.710938 3.785157 2.765625 3.785157 5.117188v9.617187c0 5.734375 4.648437 10.378906 10.378906 10.378906h15.089844c5.730469 0 10.378906-4.644531 10.378906-10.378906v-9.613281c0-2.355469 1.539063-4.410156 3.785156-5.121094 3.996094-1.261719 7.839844-2.867188 11.5-4.777344 2.089844-1.089844 4.640625-.730468 6.308594.9375l6.808594 6.8125c4.054687 4.050782 10.625 4.050782 14.675781 0l10.671875-10.671875c4.050781-4.050781 4.050781-10.625 0-14.675781l-6.8125-6.808594c-1.667969-1.667968-2.027344-4.21875-.9375-6.308594 1.910156-3.660156 3.515625-7.503906 4.777344-11.5.710937-2.246093 2.765625-3.785156 5.121093-3.785156h9.613282c5.734375 0 10.378906-4.648437 10.378906-10.378906v-15.089844c0-5.734375-4.644531-10.378906-10.375-10.378906zm0 0" fill="#8eafe2"/><path d="m459.847656 357.1875c-78.039062-26.871094-99.664062-84.730469-92.042968-134.15625-1.5625.679688-3.105469 1.402344-4.609376 2.183594-2.089843 1.089844-4.640624.730468-6.308593-.9375l-6.808594-6.808594c-4.054687-4.054688-10.625-4.054688-14.675781 0l-10.671875 10.671875c-4.050781 4.050781-4.050781 10.621094 0 14.671875l6.8125 6.8125c1.667969 1.667969 2.027343 4.214844.9375 6.308594-1.910157 3.660156-3.515625 7.503906-4.777344 11.5-.710937 2.242187-2.769531 3.785156-5.121094 3.785156h-9.617187c-5.730469 0-10.375 4.644531-10.375 10.378906v15.089844c0 5.730469 4.644531 10.375 10.375 10.375h9.617187c2.351563 0 4.410157 1.542969 5.121094 3.789062 1.261719 3.996094 2.867187 7.839844 4.777344 11.5 1.089843 2.089844.730469 4.636719-.9375 6.304688l-6.8125 6.8125c-4.050781 4.050781-4.050781 10.621094 0 14.675781l10.671875 10.667969c4.050781 4.054688 10.621094 4.054688 14.675781 0l6.808594-6.808594c1.667969-1.667968 4.21875-2.027344 6.308593-.9375 3.660157 1.910156 7.503907 3.511719 11.5 4.777344 2.242188.710938 3.785157 2.765625 3.785157 5.117188v9.617187c0 5.734375 4.648437 10.378906 10.378906 10.378906h15.089844c5.730469 0 10.378906-4.644531 10.378906-10.378906v-9.613281c0-2.355469 1.539063-4.410156 3.785156-5.121094 3.996094-1.261719 7.839844-2.867188 11.5-4.777344 2.089844-1.089844 4.640625-.730468 6.308594.9375l6.808594 6.8125c4.054687 4.050782 10.625 4.050782 14.675781 0l3.316406-3.316406c-.292968-.105469-.574218-.210938-.875-.3125zm0 0" fill="#6a96d7"/><path d="m405.105469 251.195312c-20.960938-4.789062-41.832031 8.320313-46.621094 29.277344-4.792969 20.957032 8.316406 41.832032 29.273437 46.621094 20.960938 4.789062 41.832032-8.316406 46.621094-29.277344 4.792969-20.957031-8.316406-41.832031-29.273437-46.621094zm0 0" fill="#fff"/><path d="m396.402344 328.066406c3.160156 0 6.226562-.386718 9.164062-1.09375-21.53125-18.773437-33.148437-41.539062-37.347656-64.664062-6.652344 6.980468-10.742188 16.425781-10.742188 26.832031 0 21.496094 17.429688 38.925781 38.925782 38.925781zm0 0" fill="#f6e3a3"/><path d="m409.324219 283.722656c-2.984375-7.132812-11.1875-10.496094-18.320313-7.511718-7.128906 2.984374-10.492187 11.1875-7.507812 18.316406 2.984375 7.132812 11.183594 10.496094 18.316406 7.511718 7.132812-2.984374 10.496094-11.183593 7.511719-18.316406zm0 0" fill="#4e5660"/><path d="m493.292969 237.34375h-64.183594c-10.332031 0-18.707031-8.375-18.707031-18.703125v-99.765625c0-10.328125 8.375-18.703125 18.707031-18.703125h64.183594c10.332031 0 18.707031 8.375 18.707031 18.703125v99.765625c0 10.328125-8.375 18.703125-18.707031 18.703125zm0 0" fill="#a3defe"/><path d="m429.109375 237.34375h47.425781c-26.035156-26.707031-34.816406-94.324219-27.640625-137.171875h-19.785156c-10.332031 0-18.707031 8.375-18.707031 18.703125v99.765625c0 10.328125 8.375 18.703125 18.707031 18.703125zm0 0" fill="#7acefa"/><g fill="#4e5660"><path d="m484.042969 141.445312h-45.683594c-4.140625 0-7.5-3.359374-7.5-7.5 0-4.140624 3.359375-7.5 7.5-7.5h45.683594c4.140625 0 7.5 3.359376 7.5 7.5 0 4.140626-3.359375 7.5-7.5 7.5zm0 0"/><path d="m484.042969 176.257812h-45.683594c-4.140625 0-7.5-3.359374-7.5-7.5 0-4.140624 3.359375-7.5 7.5-7.5h45.683594c4.140625 0 7.5 3.359376 7.5 7.5 0 4.140626-3.359375 7.5-7.5 7.5zm0 0"/><path d="m484.042969 211.070312h-45.683594c-4.140625 0-7.5-3.359374-7.5-7.5 0-4.140624 3.359375-7.5 7.5-7.5h45.683594c4.140625 0 7.5 3.359376 7.5 7.5 0 4.140626-3.359375 7.5-7.5 7.5zm0 0"/><path d="m58.402344 388.859375c-.648438 4.207031 3.03125 7.886719 7.238281 7.234375 19.585937-3.027344 41.472656 5.902344 66.125-18.746094 14.496094-14.5 20.203125-42.796875 4.191406-58.808594-16.007812-16.007812-44.308593-10.304687-58.804687 4.195313-24.652344 24.652344-15.71875 46.539063-18.75 66.125zm0 0"/></g><path d="m149.984375 436.464844c-10.1875 0-18.710937-7.972656-19.269531-18.269532-1.289063-23.746093-2.207032-51.683593 3.28125-82.738281 1.859375-10.503906 11.882812-17.511719 22.382812-15.65625 10.503906 1.855469 17.515625 11.878907 15.660156 22.382813-4.777343 27.011718-3.921874 52.316406-2.75 73.917968.578126 10.652344-7.585937 19.753907-18.238281 20.332032-.359375.019531-.714843.03125-1.066406.03125zm0 0" fill="#e9901b"/><path d="m231.824219 436.464844c-.355469 0-.710938-.011719-1.066407-.03125-10.652343-.578125-18.816406-9.683594-18.238281-20.332032 1.171875-21.597656 2.027344-46.898437-2.75-73.921874-1.855469-10.503907 5.15625-20.523438 15.660157-22.378907 10.503906-1.859375 20.523437 5.152344 22.382812 15.65625 5.488281 31.0625 4.570312 58.996094 3.28125 82.738281-.5625 10.296876-9.085938 18.269532-19.269531 18.269532zm0 0" fill="#e9901b"/><path d="m32.554688 299.226562c-3.273438 0-6.59375-.832031-9.632813-2.589843-9.242187-5.332031-12.40625-17.144531-7.078125-26.382813 20.929688-36.265625 66.902344-51.542968 103.125-50.582031 10.664062.28125 19.082031 9.152344 18.800781 19.816406-.277343 10.664063-9.175781 19.089844-19.8125 18.796875-20.050781-.523437-54.855469 7.367188-68.652343 31.277344-3.578126 6.199219-10.074219 9.664062-16.75 9.664062zm0 0" fill="#e9901b"/><path d="m356.683594 291.324219c-41.402344 0-77.390625-14.535157-104.066406-42.027344-7.429688-7.65625-7.246094-19.882813.410156-27.3125s19.882812-7.242187 27.3125.410156c19.507812 20.105469 45.195312 30.300781 76.34375 30.300781 10.667968 0 19.316406 8.648438 19.316406 19.3125 0 10.667969-8.648438 19.316407-19.316406 19.316407zm0 0" fill="#e9901b"/><path d="m190.902344 359.234375c59.882812 0 102.605468-28.570313 98.601562-88.03125-4.027344-59.816406-52.285156-108.421875-98.601562-108.421875-46.3125 0-94.574219 48.605469-98.597656 108.421875-4.003907 59.460937 38.71875 88.03125 98.597656 88.03125zm0 0" fill="#eea849"/><path d="m43.269531 107.449219c-26.140625-24.429688-31.550781-66.632813-26.410156-96.054688 1.128906-6.457031 6.683594-11.226562 13.234375-11.3593748 32.203125-.6484372 74.050781 7.3593748 91.691406 41.6874998zm0 0" fill="#4e5660"/><path d="m16.714844 12.285156c-4.878906 29.378906.671875 70.980469 26.554687 95.164063l49.035157-41.046875c-15.722657-24.058594-43.085938-44.703125-75.589844-54.117188zm0 0" fill="#f2d1a5"/><path d="m338.539062 107.449219c26.140626-24.429688 31.550782-66.632813 26.410157-96.054688-1.128907-6.457031-6.683594-11.226562-13.238281-11.3593748-32.199219-.6484372-74.050782 7.3593748-91.6875 41.6874998zm0 0" fill="#4e5660"/><path d="m365.089844 12.285156c4.882812 29.378906-.671875 70.980469-26.550782 95.164063l-49.035156-41.046875c15.722656-24.058594 43.085938-44.703125 75.585938-54.117188zm0 0" fill="#f2d1a5"/><path d="m190.902344 22.949219c111.460937 0 113.851562 67.574219 179.699218 106.195312 12.449219 7.304688 15.066407 24.207031 5.117188 34.664063-43.570312 45.789062-106.847656 78.050781-184.816406 78.050781-77.964844 0-141.242188-32.261719-184.8125-78.050781-9.949219-10.453125-7.332032-27.359375 5.117187-34.664063 65.847657-38.621093 68.238281-106.195312 179.695313-106.195312zm0 0" fill="#eea849"/><path d="m128.601562 32.730469c-53.707031 20.125-66.882812 66.789062-117.394531 96.414062-12.449219 7.304688-15.066406 24.207031-5.117187 34.664063 43.570312 45.789062 106.847656 78.050781 184.8125 78.050781 8.957031 0 17.707031-.445313 26.265625-1.265625-139.03125-18.707031-130.574219-151.582031-88.566407-207.863281zm0 0" fill="#e9901b"/><path d="m375.714844 163.808594c6.226562-6.539063 7.53125-15.601563 4.589844-23.261719-102.507813 59.851563-131.84375-30.296875-189.402344-30.296875-57.554688 0-86.894532 90.148438-189.402344 30.296875-2.941406 7.660156-1.632812 16.722656 4.589844 23.261719 43.570312 45.789062 106.847656 78.050781 184.8125 78.050781 77.96875 0 141.246094-32.261719 184.8125-78.050781zm0 0" fill="#f7ef87"/><path d="m105.257812 151.832031c-25.84375 12.152344-57.277343 15.851563-103.757812-11.285156-2.941406 7.660156-1.632812 16.722656 4.589844 23.261719 43.570312 45.789062 106.847656 78.050781 184.8125 78.050781 8.957031 0 17.703125-.445313 26.265625-1.265625-68.925781-9.277344-101.601563-46.609375-111.910157-88.761719zm0 0" fill="#efd176"/><path d="m124.867188 138.417969c0-16.082031-16.371094-29.117188-36.566407-29.117188-20.191406 0-36.566406 13.035157-36.566406 29.117188s16.375 29.121093 36.566406 29.121093c20.195313 0 36.566407-13.039062 36.566407-29.121093zm0 0" fill="#fff"/><path d="m330.070312 138.417969c0-16.082031-16.371093-29.117188-36.566406-29.117188-20.195312 0-36.566406 13.035157-36.566406 29.117188s16.371094 29.121093 36.566406 29.121093c20.195313 0 36.566406-13.039062 36.566406-29.121093zm0 0" fill="#fff"/><path d="m109.613281 116.871094c-4.144531 0-7.5-3.359375-7.5-7.5v-12.914063c0-4.140625 3.355469-7.5 7.5-7.5 4.140625 0 7.5 3.359375 7.5 7.5v12.914063c0 4.140625-3.359375 7.5-7.5 7.5zm0 0" fill="#4e5660"/><path d="m272.195312 116.871094c-4.144531 0-7.5-3.359375-7.5-7.5v-12.914063c0-4.140625 3.355469-7.5 7.5-7.5 4.144532 0 7.5 3.359375 7.5 7.5v12.914063c0 4.140625-3.355468 7.5-7.5 7.5zm0 0" fill="#4e5660"/><path d="m190.902344 195.078125c-9.398438 0-18.335938-4.074219-24.519532-11.167969-2.722656-3.125-2.398437-7.859375.726563-10.582031 3.121094-2.722656 7.859375-2.398437 10.582031.726563 3.335938 3.824218 8.152344 6.019531 13.210938 6.019531 5.066406 0 9.882812-2.195313 13.21875-6.019531 2.71875-3.125 7.457031-3.449219 10.582031-.726563 3.121094 2.71875 3.445313 7.457031.726563 10.582031-6.1875 7.09375-15.125 11.167969-24.527344 11.167969zm0 0" fill="#4e5660"/><path d="m207.21875 131.945312c-10.695312-2.800781-21.933594-2.800781-32.628906 0-4.429688 1.160157-8.289063 3.886719-10.863282 7.671876-3.476562 5.113281-1.476562 12.125 4.171876 14.636718l15.675781 6.972656c4.667969 2.074219 9.996093 2.074219 14.664062 0l15.671875-6.972656c5.648438-2.511718 7.648438-9.523437 4.171875-14.636718-2.574219-3.785157-6.433593-6.511719-10.863281-7.671876zm0 0" fill="#4e5660"/></svg>