<?xml version="1.0" encoding="utf-8"?>
<!-- Generator: Adobe Illustrator 19.2.0, SVG Export Plug-In . SVG Version: 6.00 Build 0)  -->
<svg version="1.1" id="Layer_1" xmlns="http://www.w3.org/2000/svg" xmlns:xlink="http://www.w3.org/1999/xlink" x="0px" y="0px"
	 width="81.2px" height="70px" viewBox="0 0 81.2 70" style="enable-background:new 0 0 81.2 70;" xml:space="preserve">
<style type="text/css">
	.st0{fill:#FFFFFF;}
	.st1{fill:none;stroke:#421F10;stroke-width:2;stroke-linecap:round;stroke-linejoin:round;stroke-miterlimit:10;}
</style>
<path class="st0" d="M76.6,9.5c-4.4-4.8-9.5-7.2-15.2-7C53,2.8,45.7,5.2,42,9c-3.7-3.8-11-6.2-19.5-6.5c-5.6-0.2-10.7,2.1-15.2,7
	c-7.6,8.3-5.8,22.2,4.6,34.4c9.5,11.3,27.4,23.5,28.1,24c0.6,0.4,1.2,0.6,1.9,0.6c0.8,0,1.3-0.2,1.9-0.6c0.8-0.5,18.6-12.7,28.1-24
	C82.3,31.6,84.2,17.8,76.6,9.5z"/>
<path class="st1" d="M72.2,8.5c-4.2-4.8-9.2-7.2-14.6-7C49.5,1.8,42.5,8,39,11.9C35.4,8,28.4,1.8,20.3,1.5c-5.4-0.2-10.3,2.1-14.6,7
	c-7.3,8.3-5.5,22.2,4.4,34.4c9.2,11.3,26.3,23.5,27,24c0.6,0.4,1.1,0.6,1.8,0.6c0.7,0,1.3-0.2,1.8-0.6c0.7-0.5,17.8-12.7,27-24
	C77.7,30.6,79.5,16.8,72.2,8.5z"/>
</svg>
