<?xml version="1.0" encoding="utf-8"?>
<!-- Generator: Adobe Illustrator 19.2.0, SVG Export Plug-In . SVG Version: 6.00 Build 0)  -->
<svg version="1.1" id="Layer_1" xmlns="http://www.w3.org/2000/svg" xmlns:xlink="http://www.w3.org/1999/xlink" x="0px" y="0px"
	 width="53.1px" height="71px" viewBox="0 0 53.1 71" style="enable-background:new 0 0 53.1 71;" xml:space="preserve">
<style type="text/css">
	.st0{fill:#FFFFFF;}
	.st1{fill:none;stroke:#421F10;stroke-width:2;stroke-linecap:round;stroke-linejoin:round;stroke-miterlimit:10;}
</style>
<path class="st0" d="M53.1,68.7c0,1.3-1,2.3-2.3,2.3H8.1c-1.3,0-2.3-1-2.3-2.3V7.3C5.8,6,6.9,5,8.1,5h42.7c1.3,0,2.3,1,2.3,2.3V68.7
	z"/>
<path class="st1" d="M50,64.6c0,1.3-1.1,2.4-2.4,2.4H3.4C2.1,67,1,65.9,1,64.6V3.4C1,2.1,2.1,1,3.4,1h44.2C48.9,1,50,2.1,50,3.4
	V64.6z"/>
<line class="st1" x1="10.6" y1="16.3" x2="31.3" y2="16.3"/>
<line class="st1" x1="10.6" y1="22.6" x2="42.6" y2="22.6"/>
<line class="st1" x1="10.6" y1="28.9" x2="42.6" y2="28.9"/>
<line class="st1" x1="10.6" y1="35.3" x2="42.6" y2="35.3"/>
<line class="st1" x1="10.6" y1="41.6" x2="42.6" y2="41.6"/>
<line class="st1" x1="10.6" y1="47.9" x2="42.6" y2="47.9"/>
<line class="st1" x1="10.6" y1="54.3" x2="42.6" y2="54.3"/>
</svg>
