<svg height="512" viewBox="0 0 64 64" width="512" xmlns="http://www.w3.org/2000/svg"><g id="flat"><path d="m39 21-2-11h-32l-2 11v37h36z" fill="#c8d952"/><path d="m33 44h28v16h-28z" fill="#8ec13f"/><path d="m5 4h32v6h-32z" fill="#8ec13f"/><path d="m6.22 17.804 1.961.392.639-3.196h6.18v-2h-7.82z" fill="#8ec13f"/><path d="m6 20h2v2h-2z" fill="#8ec13f"/><path d="m7 46h26v8h-26z" fill="#f4f4e6"/><path d="m3 25h36v12h-36z" fill="#e33e5c"/><circle cx="21" cy="31" fill="#f4f4e6" r="11"/><path d="m17 28h8a0 0 0 0 1 0 0v5a4 4 0 0 1 -4 4 4 4 0 0 1 -4-4v-5a0 0 0 0 1 0 0z" fill="#d3843d"/><path d="m29 33-4-1v-4a2 2 0 0 1 2-2z" fill="#66342e"/><path d="m13 33 4-1v-4a2 2 0 0 0 -2-2z" fill="#66342e"/><g fill="#e97424"><path d="m18 23h2v2h-2z"/><path d="m22 23h2v2h-2z"/><path d="m10 49h4v2h-4z"/><path d="m16 49h10v2h-10z"/><path d="m28 49h4v2h-4z"/></g><path d="m33 48h28v8h-28z" fill="#e33e5c"/><circle cx="47" cy="52" fill="#f4f4e6" r="2"/><path d="m40 51h2v2h-2z" fill="#66342e"/><path d="m36 51h2v2h-2z" fill="#66342e"/><path d="m52 51h2v2h-2z" fill="#66342e"/><path d="m56 51h2v2h-2z" fill="#66342e"/><path d="m49 44 9-4v4z" fill="#c8d952"/><path d="m20 32h2v2h-2z" fill="#66342e"/><path d="m17 32s4 0 4-4h-4z" fill="#b5554e"/></g></svg>